SplineFontDB: 3.2
FontName: DOSSystemFont
FullName: DOS System Font Regular
FamilyName: DOS System Font
Weight: Book
Copyright: Copyright krystman 2008
Version: 1.0
ItalicAngle: 0
UnderlinePosition: 77
UnderlineWidth: 51
Ascent: 819
Descent: 205
InvalidEm: 0
sfntRevision: 0x00010000
LayerCount: 2
Layer: 0 1 "Back" 1
Layer: 1 1 "Fore" 0
XUID: [1021 320 507773281 22019]
StyleMap: 0x0040
FSType: 4
OS2Version: 2
OS2_WeightWidthSlopeOnly: 0
OS2_UseTypoMetrics: 0
CreationTime: 1738024437
ModificationTime: 1744641023
PfmFamily: 81
TTFWeight: 400
TTFWidth: 5
LineGap: 0
VLineGap: 0
Panose: 0 0 4 0 0 0 0 0 0 0
OS2TypoAscent: 576
OS2TypoAOffset: 0
OS2TypoDescent: -128
OS2TypoDOffset: 0
OS2TypoLinegap: 0
OS2WinAscent: 640
OS2WinAOffset: 0
OS2WinDescent: 128
OS2WinDOffset: 0
HheadAscent: 640
HheadAOffset: 0
HheadDescent: -128
HheadDOffset: 0
OS2SubXSize: 512
OS2SubYSize: 512
OS2SubXOff: 0
OS2SubYOff: -64
OS2SupXSize: 512
OS2SupYSize: 512
OS2SupXOff: 0
OS2SupYOff: 512
OS2StrikeYSize: 51
OS2StrikeYPos: 204
OS2CapHeight: 576
OS2XHeight: 384
OS2Vendor: 'FSTR'
OS2CodePages: 200101ff.cdff0000
OS2UnicodeRanges: 00000007.00000000.00000000.00000000
DEI: 91125
ShortTable: maxp 16
  1
  0
  335
  60
  11
  0
  0
  2
  0
  0
  0
  0
  0
  0
  0
  0
EndShort

StartChar: .notdef
Encoding: 65536 -1 0
Width: 507
GlyphClass: 1
Flags: W
LayerCount: 2
Fore
SplineSet
373 50 m 1,0,-1
 221 268 l 1,1,-1
 69 50 l 1,2,-1
 373 50 l 1,0,-1
50 69 m 1,3,-1
 202 288 l 1,4,-1
 50 506 l 1,5,-1
 50 69 l 1,3,-1
393 69 m 1,6,-1
 393 506 l 1,7,-1
 240 288 l 1,8,-1
 393 69 l 1,6,-1
221 307 m 1,9,-1
 373 526 l 1,10,-1
 69 526 l 1,11,-1
 221 307 l 1,9,-1
0 0 m 1,12,-1
 0 576 l 1,13,-1
 443 576 l 1,14,-1
 443 0 l 1,15,-1
 0 0 l 1,12,-1
EndSplineSet
EndChar

StartChar: exclam
Encoding: 33 33 2
Width: 512
GlyphClass: 1
Flags: W
LayerCount: 2
Fore
SplineSet
128 0 m 1,0,-1
 128 128 l 1,1,-1
 256 128 l 1,2,-1
 256 0 l 1,3,-1
 128 0 l 1,0,-1
128 192 m 1,4,-1
 128 320 l 1,5,-1
 64 320 l 1,6,-1
 64 512 l 1,7,-1
 128 512 l 1,8,-1
 128 576 l 1,9,-1
 256 576 l 1,10,-1
 256 512 l 1,11,-1
 320 512 l 1,12,-1
 320 320 l 1,13,-1
 256 320 l 1,14,-1
 256 192 l 1,15,-1
 128 192 l 1,4,-1
EndSplineSet
EndChar

StartChar: quotedbl
Encoding: 34 34 3
Width: 512
GlyphClass: 1
Flags: W
LayerCount: 2
Fore
SplineSet
128 320 m 1,0,-1
 128 384 l 1,1,-1
 64 384 l 1,2,-1
 64 576 l 1,3,-1
 192 576 l 1,4,-1
 192 320 l 1,5,-1
 128 320 l 1,0,-1
320 320 m 1,6,-1
 320 576 l 1,7,-1
 448 576 l 1,8,-1
 448 384 l 1,9,-1
 384 384 l 1,10,-1
 384 320 l 1,11,-1
 320 320 l 1,6,-1
EndSplineSet
EndChar

StartChar: numbersign
Encoding: 35 35 4
Width: 512
GlyphClass: 1
Flags: W
LayerCount: 2
Fore
SplineSet
256 192 m 1,0,-1
 256 384 l 1,1,-1
 192 384 l 1,2,-1
 192 192 l 1,3,-1
 256 192 l 1,0,-1
64 0 m 1,4,-1
 64 128 l 1,5,-1
 0 128 l 1,6,-1
 0 192 l 1,7,-1
 64 192 l 1,8,-1
 64 384 l 1,9,-1
 0 384 l 1,10,-1
 0 448 l 1,11,-1
 64 448 l 1,12,-1
 64 576 l 1,13,-1
 192 576 l 1,14,-1
 192 448 l 1,15,-1
 256 448 l 1,16,-1
 256 576 l 1,17,-1
 384 576 l 1,18,-1
 384 448 l 1,19,-1
 448 448 l 1,20,-1
 448 384 l 1,21,-1
 384 384 l 1,22,-1
 384 192 l 1,23,-1
 448 192 l 1,24,-1
 448 128 l 1,25,-1
 384 128 l 1,26,-1
 384 0 l 1,27,-1
 256 0 l 1,28,-1
 256 128 l 1,29,-1
 192 128 l 1,30,-1
 192 0 l 1,31,-1
 64 0 l 1,4,-1
EndSplineSet
EndChar

StartChar: dollar
Encoding: 36 36 5
Width: 512
GlyphClass: 1
Flags: W
LayerCount: 2
Fore
SplineSet
128 -64 m 1,0,-1
 128 64 l 1,1,-1
 0 64 l 1,2,-1
 0 128 l 1,3,-1
 256 128 l 1,4,-1
 256 256 l 1,5,-1
 64 256 l 1,6,-1
 64 320 l 1,7,-1
 0 320 l 1,8,-1
 0 448 l 1,9,-1
 64 448 l 1,10,-1
 64 512 l 1,11,-1
 128 512 l 1,12,-1
 128 640 l 1,13,-1
 256 640 l 1,14,-1
 256 512 l 1,15,-1
 384 512 l 1,16,-1
 384 448 l 1,17,-1
 128 448 l 1,18,-1
 128 320 l 1,19,-1
 320 320 l 1,20,-1
 320 256 l 1,21,-1
 384 256 l 1,22,-1
 384 128 l 1,23,-1
 320 128 l 1,24,-1
 320 64 l 1,25,-1
 256 64 l 1,26,-1
 256 -64 l 1,27,-1
 128 -64 l 1,0,-1
EndSplineSet
EndChar

StartChar: percent
Encoding: 37 37 6
Width: 512
GlyphClass: 1
Flags: W
LayerCount: 2
Fore
SplineSet
256 0 m 1,0,-1
 256 128 l 1,1,-1
 384 128 l 1,2,-1
 384 0 l 1,3,-1
 256 0 l 1,0,-1
0 320 m 1,4,-1
 0 448 l 1,5,-1
 128 448 l 1,6,-1
 128 320 l 1,7,-1
 0 320 l 1,4,-1
0 0 m 1,8,-1
 0 128 l 1,9,-1
 64 128 l 1,10,-1
 64 192 l 1,11,-1
 128 192 l 1,12,-1
 128 256 l 1,13,-1
 192 256 l 1,14,-1
 192 320 l 1,15,-1
 256 320 l 1,16,-1
 256 384 l 1,17,-1
 320 384 l 1,18,-1
 320 448 l 1,19,-1
 384 448 l 1,20,-1
 384 320 l 1,21,-1
 320 320 l 1,22,-1
 320 256 l 1,23,-1
 256 256 l 1,24,-1
 256 192 l 1,25,-1
 192 192 l 1,26,-1
 192 128 l 1,27,-1
 128 128 l 1,28,-1
 128 64 l 1,29,-1
 64 64 l 1,30,-1
 64 0 l 1,31,-1
 0 0 l 1,8,-1
EndSplineSet
EndChar

StartChar: ampersand
Encoding: 38 38 7
Width: 512
GlyphClass: 1
Flags: W
LayerCount: 2
Fore
SplineSet
192 64 m 1,0,-1
 192 128 l 1,1,-1
 256 128 l 1,2,-1
 256 192 l 1,3,-1
 192 192 l 1,4,-1
 192 256 l 1,5,-1
 128 256 l 1,6,-1
 128 64 l 1,7,-1
 192 64 l 1,0,-1
192 384 m 1,8,-1
 192 512 l 1,9,-1
 128 512 l 1,10,-1
 128 384 l 1,11,-1
 192 384 l 1,8,-1
64 0 m 1,12,-1
 64 64 l 1,13,-1
 0 64 l 1,14,-1
 0 320 l 1,15,-1
 64 320 l 1,16,-1
 64 384 l 1,17,-1
 0 384 l 1,18,-1
 0 512 l 1,19,-1
 64 512 l 1,20,-1
 64 576 l 1,21,-1
 256 576 l 1,22,-1
 256 512 l 1,23,-1
 320 512 l 1,24,-1
 320 384 l 1,25,-1
 256 384 l 1,26,-1
 256 320 l 1,27,-1
 320 320 l 1,28,-1
 320 256 l 1,29,-1
 384 256 l 1,30,-1
 384 320 l 1,31,-1
 448 320 l 1,32,-1
 448 192 l 1,33,-1
 384 192 l 1,34,-1
 384 64 l 1,35,-1
 448 64 l 1,36,-1
 448 0 l 1,37,-1
 320 0 l 1,38,-1
 320 64 l 1,39,-1
 256 64 l 1,40,-1
 256 0 l 1,41,-1
 64 0 l 1,12,-1
EndSplineSet
EndChar

StartChar: quotesingle
Encoding: 39 39 8
Width: 512
GlyphClass: 1
Flags: W
LayerCount: 2
Fore
SplineSet
64 320 m 1,0,-1
 64 384 l 1,1,-1
 128 384 l 1,2,-1
 128 576 l 1,3,-1
 256 576 l 1,4,-1
 256 384 l 1,5,-1
 192 384 l 1,6,-1
 192 320 l 1,7,-1
 64 320 l 1,0,-1
EndSplineSet
EndChar

StartChar: parenleft
Encoding: 40 40 9
Width: 512
GlyphClass: 1
Flags: W
LayerCount: 2
Fore
SplineSet
256 0 m 1,0,-1
 256 64 l 1,1,-1
 192 64 l 1,2,-1
 192 128 l 1,3,-1
 128 128 l 1,4,-1
 128 192 l 1,5,-1
 64 192 l 1,6,-1
 64 384 l 1,7,-1
 128 384 l 1,8,-1
 128 448 l 1,9,-1
 192 448 l 1,10,-1
 192 512 l 1,11,-1
 256 512 l 1,12,-1
 256 576 l 1,13,-1
 384 576 l 1,14,-1
 384 512 l 1,15,-1
 320 512 l 1,16,-1
 320 448 l 1,17,-1
 256 448 l 1,18,-1
 256 384 l 1,19,-1
 192 384 l 1,20,-1
 192 192 l 1,21,-1
 256 192 l 1,22,-1
 256 128 l 1,23,-1
 320 128 l 1,24,-1
 320 64 l 1,25,-1
 384 64 l 1,26,-1
 384 0 l 1,27,-1
 256 0 l 1,0,-1
EndSplineSet
EndChar

StartChar: parenright
Encoding: 41 41 10
Width: 512
GlyphClass: 1
Flags: W
LayerCount: 2
Fore
SplineSet
64 0 m 1,0,-1
 64 64 l 1,1,-1
 128 64 l 1,2,-1
 128 128 l 1,3,-1
 192 128 l 1,4,-1
 192 192 l 1,5,-1
 256 192 l 1,6,-1
 256 384 l 1,7,-1
 192 384 l 1,8,-1
 192 448 l 1,9,-1
 128 448 l 1,10,-1
 128 512 l 1,11,-1
 64 512 l 1,12,-1
 64 576 l 1,13,-1
 192 576 l 1,14,-1
 192 512 l 1,15,-1
 256 512 l 1,16,-1
 256 448 l 1,17,-1
 320 448 l 1,18,-1
 320 384 l 1,19,-1
 384 384 l 1,20,-1
 384 192 l 1,21,-1
 320 192 l 1,22,-1
 320 128 l 1,23,-1
 256 128 l 1,24,-1
 256 64 l 1,25,-1
 192 64 l 1,26,-1
 192 0 l 1,27,-1
 64 0 l 1,0,-1
EndSplineSet
EndChar

StartChar: asterisk
Encoding: 42 42 11
Width: 512
GlyphClass: 1
Flags: W
LayerCount: 2
Fore
SplineSet
64 128 m 1,0,-1
 64 192 l 1,1,-1
 128 192 l 1,2,-1
 128 256 l 1,3,-1
 0 256 l 1,4,-1
 0 320 l 1,5,-1
 128 320 l 1,6,-1
 128 384 l 1,7,-1
 64 384 l 1,8,-1
 64 448 l 1,9,-1
 192 448 l 1,10,-1
 192 384 l 1,11,-1
 320 384 l 1,12,-1
 320 448 l 1,13,-1
 448 448 l 1,14,-1
 448 384 l 1,15,-1
 384 384 l 1,16,-1
 384 320 l 1,17,-1
 512 320 l 1,18,-1
 512 256 l 1,19,-1
 384 256 l 1,20,-1
 384 192 l 1,21,-1
 448 192 l 1,22,-1
 448 128 l 1,23,-1
 320 128 l 1,24,-1
 320 192 l 1,25,-1
 192 192 l 1,26,-1
 192 128 l 1,27,-1
 64 128 l 1,0,-1
EndSplineSet
EndChar

StartChar: plus
Encoding: 43 43 12
Width: 512
GlyphClass: 1
Flags: W
LayerCount: 2
Fore
SplineSet
192 128 m 1,0,-1
 192 256 l 1,1,-1
 64 256 l 1,2,-1
 64 320 l 1,3,-1
 192 320 l 1,4,-1
 192 448 l 1,5,-1
 320 448 l 1,6,-1
 320 320 l 1,7,-1
 448 320 l 1,8,-1
 448 256 l 1,9,-1
 320 256 l 1,10,-1
 320 128 l 1,11,-1
 192 128 l 1,0,-1
EndSplineSet
EndChar

StartChar: comma
Encoding: 44 44 13
Width: 512
GlyphClass: 1
Flags: W
LayerCount: 2
Fore
SplineSet
128 -64 m 1,0,-1
 128 0 l 1,1,-1
 192 0 l 1,2,-1
 192 128 l 1,3,-1
 384 128 l 1,4,-1
 384 0 l 1,5,-1
 256 0 l 1,6,-1
 256 -64 l 1,7,-1
 128 -64 l 1,0,-1
EndSplineSet
EndChar

StartChar: hyphen
Encoding: 45 45 14
Width: 512
GlyphClass: 1
Flags: W
LayerCount: 2
Fore
SplineSet
0 256 m 1,0,-1
 0 320 l 1,1,-1
 448 320 l 1,2,-1
 448 256 l 1,3,-1
 0 256 l 1,0,-1
EndSplineSet
EndChar

StartChar: period
Encoding: 46 46 15
Width: 512
GlyphClass: 1
Flags: W
LayerCount: 2
Fore
SplineSet
192 0 m 1,0,-1
 192 128 l 1,1,-1
 384 128 l 1,2,-1
 384 0 l 1,3,-1
 192 0 l 1,0,-1
EndSplineSet
EndChar

StartChar: slash
Encoding: 47 47 16
Width: 512
GlyphClass: 1
Flags: W
LayerCount: 2
Fore
SplineSet
0 0 m 1,0,-1
 0 128 l 1,1,-1
 64 128 l 1,2,-1
 64 192 l 1,3,-1
 128 192 l 1,4,-1
 128 256 l 1,5,-1
 192 256 l 1,6,-1
 192 320 l 1,7,-1
 256 320 l 1,8,-1
 256 384 l 1,9,-1
 320 384 l 1,10,-1
 320 448 l 1,11,-1
 384 448 l 1,12,-1
 384 512 l 1,13,-1
 448 512 l 1,14,-1
 448 384 l 1,15,-1
 384 384 l 1,16,-1
 384 320 l 1,17,-1
 320 320 l 1,18,-1
 320 256 l 1,19,-1
 256 256 l 1,20,-1
 256 192 l 1,21,-1
 192 192 l 1,22,-1
 192 128 l 1,23,-1
 128 128 l 1,24,-1
 128 64 l 1,25,-1
 64 64 l 1,26,-1
 64 0 l 1,27,-1
 0 0 l 1,0,-1
EndSplineSet
EndChar

StartChar: zero
Encoding: 48 48 17
Width: 512
GlyphClass: 1
Flags: W
LayerCount: 2
Fore
SplineSet
320 64 m 1,0,-1
 320 320 l 1,1,-1
 256 320 l 1,2,-1
 256 192 l 1,3,-1
 192 192 l 1,4,-1
 192 128 l 1,5,-1
 128 128 l 1,6,-1
 128 64 l 1,7,-1
 320 64 l 1,0,-1
192 256 m 1,8,-1
 192 384 l 1,9,-1
 256 384 l 1,10,-1
 256 448 l 1,11,-1
 320 448 l 1,12,-1
 320 512 l 1,13,-1
 128 512 l 1,14,-1
 128 256 l 1,15,-1
 192 256 l 1,8,-1
64 0 m 1,16,-1
 64 64 l 1,17,-1
 0 64 l 1,18,-1
 0 512 l 1,19,-1
 64 512 l 1,20,-1
 64 576 l 1,21,-1
 384 576 l 1,22,-1
 384 512 l 1,23,-1
 448 512 l 1,24,-1
 448 64 l 1,25,-1
 384 64 l 1,26,-1
 384 0 l 1,27,-1
 64 0 l 1,16,-1
EndSplineSet
EndChar

StartChar: one
Encoding: 49 49 18
Width: 512
GlyphClass: 1
Flags: W
LayerCount: 2
Fore
SplineSet
0 0 m 1,0,-1
 0 64 l 1,1,-1
 128 64 l 1,2,-1
 128 384 l 1,3,-1
 0 384 l 1,4,-1
 0 448 l 1,5,-1
 128 448 l 1,6,-1
 128 512 l 1,7,-1
 192 512 l 1,8,-1
 192 576 l 1,9,-1
 256 576 l 1,10,-1
 256 64 l 1,11,-1
 384 64 l 1,12,-1
 384 0 l 1,13,-1
 0 0 l 1,0,-1
EndSplineSet
EndChar

StartChar: two
Encoding: 50 50 19
Width: 512
GlyphClass: 1
Flags: W
LayerCount: 2
Fore
SplineSet
0 0 m 1,0,-1
 0 128 l 1,1,-1
 64 128 l 1,2,-1
 64 192 l 1,3,-1
 128 192 l 1,4,-1
 128 256 l 1,5,-1
 192 256 l 1,6,-1
 192 320 l 1,7,-1
 256 320 l 1,8,-1
 256 512 l 1,9,-1
 128 512 l 1,10,-1
 128 384 l 1,11,-1
 0 384 l 1,12,-1
 0 512 l 1,13,-1
 64 512 l 1,14,-1
 64 576 l 1,15,-1
 320 576 l 1,16,-1
 320 512 l 1,17,-1
 384 512 l 1,18,-1
 384 320 l 1,19,-1
 320 320 l 1,20,-1
 320 256 l 1,21,-1
 256 256 l 1,22,-1
 256 192 l 1,23,-1
 192 192 l 1,24,-1
 192 128 l 1,25,-1
 128 128 l 1,26,-1
 128 64 l 1,27,-1
 256 64 l 1,28,-1
 256 128 l 1,29,-1
 384 128 l 1,30,-1
 384 0 l 1,31,-1
 0 0 l 1,0,-1
EndSplineSet
EndChar

StartChar: three
Encoding: 51 51 20
Width: 512
GlyphClass: 1
Flags: W
LayerCount: 2
Fore
SplineSet
64 0 m 1,0,-1
 64 64 l 1,1,-1
 0 64 l 1,2,-1
 0 128 l 1,3,-1
 128 128 l 1,4,-1
 128 64 l 1,5,-1
 256 64 l 1,6,-1
 256 256 l 1,7,-1
 192 256 l 1,8,-1
 192 320 l 1,9,-1
 256 320 l 1,10,-1
 256 512 l 1,11,-1
 128 512 l 1,12,-1
 128 448 l 1,13,-1
 0 448 l 1,14,-1
 0 512 l 1,15,-1
 64 512 l 1,16,-1
 64 576 l 1,17,-1
 320 576 l 1,18,-1
 320 512 l 1,19,-1
 384 512 l 1,20,-1
 384 320 l 1,21,-1
 320 320 l 1,22,-1
 320 256 l 1,23,-1
 384 256 l 1,24,-1
 384 64 l 1,25,-1
 320 64 l 1,26,-1
 320 0 l 1,27,-1
 64 0 l 1,0,-1
EndSplineSet
EndChar

StartChar: four
Encoding: 52 52 21
Width: 512
GlyphClass: 1
Flags: W
LayerCount: 2
Fore
SplineSet
256 256 m 1,0,-1
 256 384 l 1,1,-1
 192 384 l 1,2,-1
 192 320 l 1,3,-1
 128 320 l 1,4,-1
 128 256 l 1,5,-1
 256 256 l 1,0,-1
192 0 m 1,6,-1
 192 64 l 1,7,-1
 256 64 l 1,8,-1
 256 192 l 1,9,-1
 0 192 l 1,10,-1
 0 320 l 1,11,-1
 64 320 l 1,12,-1
 64 384 l 1,13,-1
 128 384 l 1,14,-1
 128 448 l 1,15,-1
 192 448 l 1,16,-1
 192 512 l 1,17,-1
 256 512 l 1,18,-1
 256 576 l 1,19,-1
 384 576 l 1,20,-1
 384 256 l 1,21,-1
 448 256 l 1,22,-1
 448 192 l 1,23,-1
 384 192 l 1,24,-1
 384 64 l 1,25,-1
 448 64 l 1,26,-1
 448 0 l 1,27,-1
 192 0 l 1,6,-1
EndSplineSet
EndChar

StartChar: five
Encoding: 53 53 22
Width: 512
GlyphClass: 1
Flags: W
LayerCount: 2
Fore
SplineSet
64 0 m 1,0,-1
 64 64 l 1,1,-1
 0 64 l 1,2,-1
 0 128 l 1,3,-1
 128 128 l 1,4,-1
 128 64 l 1,5,-1
 256 64 l 1,6,-1
 256 256 l 1,7,-1
 0 256 l 1,8,-1
 0 576 l 1,9,-1
 384 576 l 1,10,-1
 384 512 l 1,11,-1
 128 512 l 1,12,-1
 128 320 l 1,13,-1
 320 320 l 1,14,-1
 320 256 l 1,15,-1
 384 256 l 1,16,-1
 384 64 l 1,17,-1
 320 64 l 1,18,-1
 320 0 l 1,19,-1
 64 0 l 1,0,-1
EndSplineSet
EndChar

StartChar: six
Encoding: 54 54 23
Width: 512
GlyphClass: 1
Flags: W
LayerCount: 2
Fore
SplineSet
256 64 m 1,0,-1
 256 256 l 1,1,-1
 128 256 l 1,2,-1
 128 64 l 1,3,-1
 256 64 l 1,0,-1
64 0 m 1,4,-1
 64 64 l 1,5,-1
 0 64 l 1,6,-1
 0 448 l 1,7,-1
 64 448 l 1,8,-1
 64 512 l 1,9,-1
 128 512 l 1,10,-1
 128 576 l 1,11,-1
 320 576 l 1,12,-1
 320 512 l 1,13,-1
 192 512 l 1,14,-1
 192 448 l 1,15,-1
 128 448 l 1,16,-1
 128 320 l 1,17,-1
 320 320 l 1,18,-1
 320 256 l 1,19,-1
 384 256 l 1,20,-1
 384 64 l 1,21,-1
 320 64 l 1,22,-1
 320 0 l 1,23,-1
 64 0 l 1,4,-1
EndSplineSet
EndChar

StartChar: seven
Encoding: 55 55 24
Width: 512
GlyphClass: 1
Flags: W
LayerCount: 2
Fore
SplineSet
128 0 m 1,0,-1
 128 192 l 1,1,-1
 192 192 l 1,2,-1
 192 256 l 1,3,-1
 256 256 l 1,4,-1
 256 320 l 1,5,-1
 320 320 l 1,6,-1
 320 512 l 1,7,-1
 128 512 l 1,8,-1
 128 384 l 1,9,-1
 0 384 l 1,10,-1
 0 576 l 1,11,-1
 448 576 l 1,12,-1
 448 320 l 1,13,-1
 384 320 l 1,14,-1
 384 256 l 1,15,-1
 320 256 l 1,16,-1
 320 192 l 1,17,-1
 256 192 l 1,18,-1
 256 0 l 1,19,-1
 128 0 l 1,0,-1
EndSplineSet
EndChar

StartChar: eight
Encoding: 56 56 25
Width: 512
GlyphClass: 1
Flags: W
LayerCount: 2
Fore
SplineSet
256 64 m 1,0,-1
 256 256 l 1,1,-1
 128 256 l 1,2,-1
 128 64 l 1,3,-1
 256 64 l 1,0,-1
256 320 m 1,4,-1
 256 512 l 1,5,-1
 128 512 l 1,6,-1
 128 320 l 1,7,-1
 256 320 l 1,4,-1
64 0 m 1,8,-1
 64 64 l 1,9,-1
 0 64 l 1,10,-1
 0 256 l 1,11,-1
 64 256 l 1,12,-1
 64 320 l 1,13,-1
 0 320 l 1,14,-1
 0 512 l 1,15,-1
 64 512 l 1,16,-1
 64 576 l 1,17,-1
 320 576 l 1,18,-1
 320 512 l 1,19,-1
 384 512 l 1,20,-1
 384 320 l 1,21,-1
 320 320 l 1,22,-1
 320 256 l 1,23,-1
 384 256 l 1,24,-1
 384 64 l 1,25,-1
 320 64 l 1,26,-1
 320 0 l 1,27,-1
 64 0 l 1,8,-1
EndSplineSet
EndChar

StartChar: nine
Encoding: 57 57 26
Width: 512
GlyphClass: 1
Flags: W
LayerCount: 2
Fore
SplineSet
256 320 m 1,0,-1
 256 512 l 1,1,-1
 128 512 l 1,2,-1
 128 320 l 1,3,-1
 256 320 l 1,0,-1
64 0 m 1,4,-1
 64 64 l 1,5,-1
 128 64 l 1,6,-1
 128 128 l 1,7,-1
 192 128 l 1,8,-1
 192 256 l 1,9,-1
 64 256 l 1,10,-1
 64 320 l 1,11,-1
 0 320 l 1,12,-1
 0 512 l 1,13,-1
 64 512 l 1,14,-1
 64 576 l 1,15,-1
 320 576 l 1,16,-1
 320 512 l 1,17,-1
 384 512 l 1,18,-1
 384 320 l 1,19,-1
 320 320 l 1,20,-1
 320 128 l 1,21,-1
 256 128 l 1,22,-1
 256 0 l 1,23,-1
 64 0 l 1,4,-1
EndSplineSet
EndChar

StartChar: colon
Encoding: 58 58 27
Width: 512
GlyphClass: 1
Flags: W
LayerCount: 2
Fore
SplineSet
128 64 m 1,0,-1
 128 192 l 1,1,-1
 320 192 l 1,2,-1
 320 64 l 1,3,-1
 128 64 l 1,0,-1
128 320 m 1,4,-1
 128 448 l 1,5,-1
 320 448 l 1,6,-1
 320 320 l 1,7,-1
 128 320 l 1,4,-1
EndSplineSet
EndChar

StartChar: semicolon
Encoding: 59 59 28
Width: 512
GlyphClass: 1
Flags: W
LayerCount: 2
Fore
SplineSet
128 -64 m 1,0,-1
 128 0 l 1,1,-1
 192 0 l 1,2,-1
 192 64 l 1,3,-1
 128 64 l 1,4,-1
 128 192 l 1,5,-1
 320 192 l 1,6,-1
 320 0 l 1,7,-1
 256 0 l 1,8,-1
 256 -64 l 1,9,-1
 128 -64 l 1,0,-1
128 320 m 1,10,-1
 128 448 l 1,11,-1
 320 448 l 1,12,-1
 320 320 l 1,13,-1
 128 320 l 1,10,-1
EndSplineSet
EndChar

StartChar: less
Encoding: 60 60 29
Width: 512
GlyphClass: 1
Flags: W
LayerCount: 2
Fore
SplineSet
256 0 m 1,0,-1
 256 64 l 1,1,-1
 192 64 l 1,2,-1
 192 128 l 1,3,-1
 128 128 l 1,4,-1
 128 192 l 1,5,-1
 64 192 l 1,6,-1
 64 256 l 1,7,-1
 0 256 l 1,8,-1
 0 320 l 1,9,-1
 64 320 l 1,10,-1
 64 384 l 1,11,-1
 128 384 l 1,12,-1
 128 448 l 1,13,-1
 192 448 l 1,14,-1
 192 512 l 1,15,-1
 256 512 l 1,16,-1
 256 576 l 1,17,-1
 384 576 l 1,18,-1
 384 512 l 1,19,-1
 320 512 l 1,20,-1
 320 448 l 1,21,-1
 256 448 l 1,22,-1
 256 384 l 1,23,-1
 192 384 l 1,24,-1
 192 320 l 1,25,-1
 128 320 l 1,26,-1
 128 256 l 1,27,-1
 192 256 l 1,28,-1
 192 192 l 1,29,-1
 256 192 l 1,30,-1
 256 128 l 1,31,-1
 320 128 l 1,32,-1
 320 64 l 1,33,-1
 384 64 l 1,34,-1
 384 0 l 1,35,-1
 256 0 l 1,0,-1
EndSplineSet
EndChar

StartChar: equal
Encoding: 61 61 30
Width: 512
GlyphClass: 1
Flags: W
LayerCount: 2
Fore
SplineSet
64 192 m 1,0,-1
 64 256 l 1,1,-1
 448 256 l 1,2,-1
 448 192 l 1,3,-1
 64 192 l 1,0,-1
64 320 m 1,4,-1
 64 384 l 1,5,-1
 448 384 l 1,6,-1
 448 320 l 1,7,-1
 64 320 l 1,4,-1
EndSplineSet
EndChar

StartChar: greater
Encoding: 62 62 31
Width: 512
GlyphClass: 1
Flags: W
LayerCount: 2
Fore
SplineSet
64 0 m 1,0,-1
 64 64 l 1,1,-1
 128 64 l 1,2,-1
 128 128 l 1,3,-1
 192 128 l 1,4,-1
 192 192 l 1,5,-1
 256 192 l 1,6,-1
 256 256 l 1,7,-1
 320 256 l 1,8,-1
 320 320 l 1,9,-1
 256 320 l 1,10,-1
 256 384 l 1,11,-1
 192 384 l 1,12,-1
 192 448 l 1,13,-1
 128 448 l 1,14,-1
 128 512 l 1,15,-1
 64 512 l 1,16,-1
 64 576 l 1,17,-1
 192 576 l 1,18,-1
 192 512 l 1,19,-1
 256 512 l 1,20,-1
 256 448 l 1,21,-1
 320 448 l 1,22,-1
 320 384 l 1,23,-1
 384 384 l 1,24,-1
 384 320 l 1,25,-1
 448 320 l 1,26,-1
 448 256 l 1,27,-1
 384 256 l 1,28,-1
 384 192 l 1,29,-1
 320 192 l 1,30,-1
 320 128 l 1,31,-1
 256 128 l 1,32,-1
 256 64 l 1,33,-1
 192 64 l 1,34,-1
 192 0 l 1,35,-1
 64 0 l 1,0,-1
EndSplineSet
EndChar

StartChar: question
Encoding: 63 63 32
Width: 512
GlyphClass: 1
Flags: W
LayerCount: 2
Fore
SplineSet
128 0 m 1,0,-1
 128 128 l 1,1,-1
 256 128 l 1,2,-1
 256 0 l 1,3,-1
 128 0 l 1,0,-1
128 192 m 1,4,-1
 128 320 l 1,5,-1
 192 320 l 1,6,-1
 192 384 l 1,7,-1
 256 384 l 1,8,-1
 256 512 l 1,9,-1
 128 512 l 1,10,-1
 128 448 l 1,11,-1
 0 448 l 1,12,-1
 0 512 l 1,13,-1
 64 512 l 1,14,-1
 64 576 l 1,15,-1
 320 576 l 1,16,-1
 320 512 l 1,17,-1
 384 512 l 1,18,-1
 384 384 l 1,19,-1
 320 384 l 1,20,-1
 320 320 l 1,21,-1
 256 320 l 1,22,-1
 256 192 l 1,23,-1
 128 192 l 1,4,-1
EndSplineSet
EndChar

StartChar: at
Encoding: 64 64 33
Width: 512
GlyphClass: 1
Flags: W
LayerCount: 2
Fore
SplineSet
64 0 m 1,0,-1
 64 64 l 1,1,-1
 0 64 l 1,2,-1
 0 512 l 1,3,-1
 64 512 l 1,4,-1
 64 576 l 1,5,-1
 384 576 l 1,6,-1
 384 512 l 1,7,-1
 448 512 l 1,8,-1
 448 192 l 1,9,-1
 192 192 l 1,10,-1
 192 384 l 1,11,-1
 320 384 l 1,12,-1
 320 512 l 1,13,-1
 128 512 l 1,14,-1
 128 64 l 1,15,-1
 384 64 l 1,16,-1
 384 0 l 1,17,-1
 64 0 l 1,0,-1
EndSplineSet
EndChar

StartChar: A
Encoding: 65 65 34
Width: 512
GlyphClass: 1
Flags: W
LayerCount: 2
Fore
SplineSet
256 256 m 1,0,-1
 256 448 l 1,1,-1
 128 448 l 1,2,-1
 128 256 l 1,3,-1
 256 256 l 1,0,-1
0 0 m 1,4,-1
 0 448 l 1,5,-1
 64 448 l 1,6,-1
 64 512 l 1,7,-1
 128 512 l 1,8,-1
 128 576 l 1,9,-1
 256 576 l 1,10,-1
 256 512 l 1,11,-1
 320 512 l 1,12,-1
 320 448 l 1,13,-1
 384 448 l 1,14,-1
 384 0 l 1,15,-1
 256 0 l 1,16,-1
 256 192 l 1,17,-1
 128 192 l 1,18,-1
 128 0 l 1,19,-1
 0 0 l 1,4,-1
EndSplineSet
EndChar

StartChar: B
Encoding: 66 66 35
Width: 512
GlyphClass: 1
Flags: W
LayerCount: 2
Fore
SplineSet
320 64 m 1,0,-1
 320 256 l 1,1,-1
 192 256 l 1,2,-1
 192 64 l 1,3,-1
 320 64 l 1,0,-1
320 320 m 1,4,-1
 320 512 l 1,5,-1
 192 512 l 1,6,-1
 192 320 l 1,7,-1
 320 320 l 1,4,-1
0 0 m 1,8,-1
 0 64 l 1,9,-1
 64 64 l 1,10,-1
 64 512 l 1,11,-1
 0 512 l 1,12,-1
 0 576 l 1,13,-1
 384 576 l 1,14,-1
 384 512 l 1,15,-1
 448 512 l 1,16,-1
 448 320 l 1,17,-1
 384 320 l 1,18,-1
 384 256 l 1,19,-1
 448 256 l 1,20,-1
 448 64 l 1,21,-1
 384 64 l 1,22,-1
 384 0 l 1,23,-1
 0 0 l 1,8,-1
EndSplineSet
EndChar

StartChar: C
Encoding: 67 67 36
Width: 512
GlyphClass: 1
Flags: W
LayerCount: 2
Fore
SplineSet
128 0 m 1,0,-1
 128 64 l 1,1,-1
 64 64 l 1,2,-1
 64 128 l 1,3,-1
 0 128 l 1,4,-1
 0 448 l 1,5,-1
 64 448 l 1,6,-1
 64 512 l 1,7,-1
 128 512 l 1,8,-1
 128 576 l 1,9,-1
 384 576 l 1,10,-1
 384 512 l 1,11,-1
 448 512 l 1,12,-1
 448 384 l 1,13,-1
 320 384 l 1,14,-1
 320 512 l 1,15,-1
 192 512 l 1,16,-1
 192 448 l 1,17,-1
 128 448 l 1,18,-1
 128 128 l 1,19,-1
 192 128 l 1,20,-1
 192 64 l 1,21,-1
 320 64 l 1,22,-1
 320 192 l 1,23,-1
 448 192 l 1,24,-1
 448 64 l 1,25,-1
 384 64 l 1,26,-1
 384 0 l 1,27,-1
 128 0 l 1,0,-1
EndSplineSet
EndChar

StartChar: D
Encoding: 68 68 37
Width: 512
GlyphClass: 1
Flags: W
LayerCount: 2
Fore
SplineSet
256 64 m 1,0,-1
 256 128 l 1,1,-1
 320 128 l 1,2,-1
 320 448 l 1,3,-1
 256 448 l 1,4,-1
 256 512 l 1,5,-1
 192 512 l 1,6,-1
 192 64 l 1,7,-1
 256 64 l 1,0,-1
0 0 m 1,8,-1
 0 64 l 1,9,-1
 64 64 l 1,10,-1
 64 512 l 1,11,-1
 0 512 l 1,12,-1
 0 576 l 1,13,-1
 320 576 l 1,14,-1
 320 512 l 1,15,-1
 384 512 l 1,16,-1
 384 448 l 1,17,-1
 448 448 l 1,18,-1
 448 128 l 1,19,-1
 384 128 l 1,20,-1
 384 64 l 1,21,-1
 320 64 l 1,22,-1
 320 0 l 1,23,-1
 0 0 l 1,8,-1
EndSplineSet
EndChar

StartChar: E
Encoding: 69 69 38
Width: 512
GlyphClass: 1
Flags: W
LayerCount: 2
Fore
SplineSet
0 0 m 1,0,-1
 0 64 l 1,1,-1
 64 64 l 1,2,-1
 64 512 l 1,3,-1
 0 512 l 1,4,-1
 0 576 l 1,5,-1
 448 576 l 1,6,-1
 448 448 l 1,7,-1
 384 448 l 1,8,-1
 384 512 l 1,9,-1
 192 512 l 1,10,-1
 192 320 l 1,11,-1
 320 320 l 1,12,-1
 320 384 l 1,13,-1
 384 384 l 1,14,-1
 384 192 l 1,15,-1
 320 192 l 1,16,-1
 320 256 l 1,17,-1
 192 256 l 1,18,-1
 192 64 l 1,19,-1
 384 64 l 1,20,-1
 384 128 l 1,21,-1
 448 128 l 1,22,-1
 448 0 l 1,23,-1
 0 0 l 1,0,-1
EndSplineSet
EndChar

StartChar: F
Encoding: 70 70 39
Width: 512
GlyphClass: 1
Flags: W
LayerCount: 2
Fore
SplineSet
0 0 m 1,0,-1
 0 64 l 1,1,-1
 64 64 l 1,2,-1
 64 512 l 1,3,-1
 0 512 l 1,4,-1
 0 576 l 1,5,-1
 448 576 l 1,6,-1
 448 384 l 1,7,-1
 384 384 l 1,8,-1
 384 448 l 1,9,-1
 320 448 l 1,10,-1
 320 512 l 1,11,-1
 192 512 l 1,12,-1
 192 320 l 1,13,-1
 320 320 l 1,14,-1
 320 384 l 1,15,-1
 384 384 l 1,16,-1
 384 192 l 1,17,-1
 320 192 l 1,18,-1
 320 256 l 1,19,-1
 192 256 l 1,20,-1
 192 64 l 1,21,-1
 256 64 l 1,22,-1
 256 0 l 1,23,-1
 0 0 l 1,0,-1
EndSplineSet
EndChar

StartChar: G
Encoding: 71 71 40
Width: 512
GlyphClass: 1
Flags: W
LayerCount: 2
Fore
SplineSet
128 0 m 1,0,-1
 128 64 l 1,1,-1
 64 64 l 1,2,-1
 64 128 l 1,3,-1
 0 128 l 1,4,-1
 0 448 l 1,5,-1
 64 448 l 1,6,-1
 64 512 l 1,7,-1
 128 512 l 1,8,-1
 128 576 l 1,9,-1
 384 576 l 1,10,-1
 384 512 l 1,11,-1
 448 512 l 1,12,-1
 448 384 l 1,13,-1
 320 384 l 1,14,-1
 320 512 l 1,15,-1
 192 512 l 1,16,-1
 192 448 l 1,17,-1
 128 448 l 1,18,-1
 128 128 l 1,19,-1
 192 128 l 1,20,-1
 192 64 l 1,21,-1
 320 64 l 1,22,-1
 320 192 l 1,23,-1
 256 192 l 1,24,-1
 256 256 l 1,25,-1
 448 256 l 1,26,-1
 448 0 l 1,27,-1
 128 0 l 1,0,-1
EndSplineSet
EndChar

StartChar: H
Encoding: 72 72 41
Width: 512
GlyphClass: 1
Flags: W
LayerCount: 2
Fore
SplineSet
0 0 m 1,0,-1
 0 576 l 1,1,-1
 128 576 l 1,2,-1
 128 320 l 1,3,-1
 256 320 l 1,4,-1
 256 576 l 1,5,-1
 384 576 l 1,6,-1
 384 0 l 1,7,-1
 256 0 l 1,8,-1
 256 256 l 1,9,-1
 128 256 l 1,10,-1
 128 0 l 1,11,-1
 0 0 l 1,0,-1
EndSplineSet
EndChar

StartChar: I
Encoding: 73 73 42
Width: 512
GlyphClass: 1
Flags: W
LayerCount: 2
Fore
SplineSet
64 0 m 1,0,-1
 64 64 l 1,1,-1
 128 64 l 1,2,-1
 128 512 l 1,3,-1
 64 512 l 1,4,-1
 64 576 l 1,5,-1
 320 576 l 1,6,-1
 320 512 l 1,7,-1
 256 512 l 1,8,-1
 256 64 l 1,9,-1
 320 64 l 1,10,-1
 320 0 l 1,11,-1
 64 0 l 1,0,-1
EndSplineSet
EndChar

StartChar: J
Encoding: 74 74 43
Width: 512
GlyphClass: 1
Flags: W
LayerCount: 2
Fore
SplineSet
64 0 m 1,0,-1
 64 64 l 1,1,-1
 0 64 l 1,2,-1
 0 256 l 1,3,-1
 128 256 l 1,4,-1
 128 64 l 1,5,-1
 256 64 l 1,6,-1
 256 512 l 1,7,-1
 192 512 l 1,8,-1
 192 576 l 1,9,-1
 448 576 l 1,10,-1
 448 512 l 1,11,-1
 384 512 l 1,12,-1
 384 64 l 1,13,-1
 320 64 l 1,14,-1
 320 0 l 1,15,-1
 64 0 l 1,0,-1
EndSplineSet
EndChar

StartChar: K
Encoding: 75 75 44
Width: 512
GlyphClass: 1
Flags: W
LayerCount: 2
Fore
SplineSet
0 0 m 1,0,-1
 0 64 l 1,1,-1
 64 64 l 1,2,-1
 64 512 l 1,3,-1
 0 512 l 1,4,-1
 0 576 l 1,5,-1
 192 576 l 1,6,-1
 192 320 l 1,7,-1
 256 320 l 1,8,-1
 256 448 l 1,9,-1
 320 448 l 1,10,-1
 320 576 l 1,11,-1
 448 576 l 1,12,-1
 448 448 l 1,13,-1
 384 448 l 1,14,-1
 384 320 l 1,15,-1
 320 320 l 1,16,-1
 320 256 l 1,17,-1
 384 256 l 1,18,-1
 384 128 l 1,19,-1
 448 128 l 1,20,-1
 448 0 l 1,21,-1
 320 0 l 1,22,-1
 320 128 l 1,23,-1
 256 128 l 1,24,-1
 256 256 l 1,25,-1
 192 256 l 1,26,-1
 192 0 l 1,27,-1
 0 0 l 1,0,-1
EndSplineSet
EndChar

StartChar: L
Encoding: 76 76 45
Width: 512
GlyphClass: 1
Flags: W
LayerCount: 2
Fore
SplineSet
0 0 m 1,0,-1
 0 64 l 1,1,-1
 64 64 l 1,2,-1
 64 512 l 1,3,-1
 0 512 l 1,4,-1
 0 576 l 1,5,-1
 256 576 l 1,6,-1
 256 512 l 1,7,-1
 192 512 l 1,8,-1
 192 64 l 1,9,-1
 320 64 l 1,10,-1
 320 192 l 1,11,-1
 384 192 l 1,12,-1
 384 256 l 1,13,-1
 448 256 l 1,14,-1
 448 0 l 1,15,-1
 0 0 l 1,0,-1
EndSplineSet
EndChar

StartChar: M
Encoding: 77 77 46
Width: 512
GlyphClass: 1
Flags: W
LayerCount: 2
Fore
SplineSet
0 0 m 1,0,-1
 0 576 l 1,1,-1
 128 576 l 1,2,-1
 128 512 l 1,3,-1
 192 512 l 1,4,-1
 192 448 l 1,5,-1
 256 448 l 1,6,-1
 256 512 l 1,7,-1
 320 512 l 1,8,-1
 320 576 l 1,9,-1
 448 576 l 1,10,-1
 448 0 l 1,11,-1
 320 0 l 1,12,-1
 320 320 l 1,13,-1
 256 320 l 1,14,-1
 256 256 l 1,15,-1
 192 256 l 1,16,-1
 192 320 l 1,17,-1
 128 320 l 1,18,-1
 128 0 l 1,19,-1
 0 0 l 1,0,-1
EndSplineSet
EndChar

StartChar: N
Encoding: 78 78 47
Width: 512
GlyphClass: 1
Flags: W
LayerCount: 2
Fore
SplineSet
0 0 m 1,0,-1
 0 576 l 1,1,-1
 128 576 l 1,2,-1
 128 448 l 1,3,-1
 192 448 l 1,4,-1
 192 384 l 1,5,-1
 256 384 l 1,6,-1
 256 320 l 1,7,-1
 320 320 l 1,8,-1
 320 576 l 1,9,-1
 448 576 l 1,10,-1
 448 0 l 1,11,-1
 320 0 l 1,12,-1
 320 128 l 1,13,-1
 256 128 l 1,14,-1
 256 192 l 1,15,-1
 192 192 l 1,16,-1
 192 256 l 1,17,-1
 128 256 l 1,18,-1
 128 0 l 1,19,-1
 0 0 l 1,0,-1
EndSplineSet
EndChar

StartChar: O
Encoding: 79 79 48
Width: 512
GlyphClass: 1
Flags: W
LayerCount: 2
Fore
SplineSet
256 64 m 1,0,-1
 256 128 l 1,1,-1
 320 128 l 1,2,-1
 320 448 l 1,3,-1
 256 448 l 1,4,-1
 256 512 l 1,5,-1
 192 512 l 1,6,-1
 192 448 l 1,7,-1
 128 448 l 1,8,-1
 128 128 l 1,9,-1
 192 128 l 1,10,-1
 192 64 l 1,11,-1
 256 64 l 1,0,-1
128 0 m 1,12,-1
 128 64 l 1,13,-1
 64 64 l 1,14,-1
 64 128 l 1,15,-1
 0 128 l 1,16,-1
 0 448 l 1,17,-1
 64 448 l 1,18,-1
 64 512 l 1,19,-1
 128 512 l 1,20,-1
 128 576 l 1,21,-1
 320 576 l 1,22,-1
 320 512 l 1,23,-1
 384 512 l 1,24,-1
 384 448 l 1,25,-1
 448 448 l 1,26,-1
 448 128 l 1,27,-1
 384 128 l 1,28,-1
 384 64 l 1,29,-1
 320 64 l 1,30,-1
 320 0 l 1,31,-1
 128 0 l 1,12,-1
EndSplineSet
EndChar

StartChar: P
Encoding: 80 80 49
Width: 512
GlyphClass: 1
Flags: W
LayerCount: 2
Fore
SplineSet
320 320 m 1,0,-1
 320 512 l 1,1,-1
 192 512 l 1,2,-1
 192 320 l 1,3,-1
 320 320 l 1,0,-1
0 0 m 1,4,-1
 0 64 l 1,5,-1
 64 64 l 1,6,-1
 64 512 l 1,7,-1
 0 512 l 1,8,-1
 0 576 l 1,9,-1
 384 576 l 1,10,-1
 384 512 l 1,11,-1
 448 512 l 1,12,-1
 448 320 l 1,13,-1
 384 320 l 1,14,-1
 384 256 l 1,15,-1
 192 256 l 1,16,-1
 192 64 l 1,17,-1
 256 64 l 1,18,-1
 256 0 l 1,19,-1
 0 0 l 1,4,-1
EndSplineSet
EndChar

StartChar: Q
Encoding: 81 81 50
Width: 512
GlyphClass: 1
Flags: W
LayerCount: 2
Fore
SplineSet
192 128 m 1,0,-1
 192 192 l 1,1,-1
 256 192 l 1,2,-1
 256 256 l 1,3,-1
 320 256 l 1,4,-1
 320 448 l 1,5,-1
 256 448 l 1,6,-1
 256 512 l 1,7,-1
 192 512 l 1,8,-1
 192 448 l 1,9,-1
 128 448 l 1,10,-1
 128 128 l 1,11,-1
 192 128 l 1,0,-1
192 -64 m 1,12,-1
 192 0 l 1,13,-1
 256 0 l 1,14,-1
 256 64 l 1,15,-1
 64 64 l 1,16,-1
 64 128 l 1,17,-1
 0 128 l 1,18,-1
 0 448 l 1,19,-1
 64 448 l 1,20,-1
 64 512 l 1,21,-1
 128 512 l 1,22,-1
 128 576 l 1,23,-1
 320 576 l 1,24,-1
 320 512 l 1,25,-1
 384 512 l 1,26,-1
 384 448 l 1,27,-1
 448 448 l 1,28,-1
 448 128 l 1,29,-1
 384 128 l 1,30,-1
 384 0 l 1,31,-1
 448 0 l 1,32,-1
 448 -64 l 1,33,-1
 192 -64 l 1,12,-1
EndSplineSet
EndChar

StartChar: R
Encoding: 82 82 51
Width: 512
GlyphClass: 1
Flags: W
LayerCount: 2
Fore
SplineSet
320 320 m 1,0,-1
 320 512 l 1,1,-1
 192 512 l 1,2,-1
 192 320 l 1,3,-1
 320 320 l 1,0,-1
0 0 m 1,4,-1
 0 64 l 1,5,-1
 64 64 l 1,6,-1
 64 512 l 1,7,-1
 0 512 l 1,8,-1
 0 576 l 1,9,-1
 384 576 l 1,10,-1
 384 512 l 1,11,-1
 448 512 l 1,12,-1
 448 320 l 1,13,-1
 384 320 l 1,14,-1
 384 192 l 1,15,-1
 448 192 l 1,16,-1
 448 0 l 1,17,-1
 320 0 l 1,18,-1
 320 192 l 1,19,-1
 256 192 l 1,20,-1
 256 256 l 1,21,-1
 192 256 l 1,22,-1
 192 0 l 1,23,-1
 0 0 l 1,4,-1
EndSplineSet
EndChar

StartChar: S
Encoding: 83 83 52
Width: 512
GlyphClass: 1
Flags: W
LayerCount: 2
Fore
SplineSet
64 0 m 1,0,-1
 64 64 l 1,1,-1
 0 64 l 1,2,-1
 0 192 l 1,3,-1
 128 192 l 1,4,-1
 128 64 l 1,5,-1
 256 64 l 1,6,-1
 256 192 l 1,7,-1
 192 192 l 1,8,-1
 192 256 l 1,9,-1
 64 256 l 1,10,-1
 64 320 l 1,11,-1
 0 320 l 1,12,-1
 0 512 l 1,13,-1
 64 512 l 1,14,-1
 64 576 l 1,15,-1
 320 576 l 1,16,-1
 320 512 l 1,17,-1
 384 512 l 1,18,-1
 384 384 l 1,19,-1
 256 384 l 1,20,-1
 256 512 l 1,21,-1
 128 512 l 1,22,-1
 128 320 l 1,23,-1
 256 320 l 1,24,-1
 256 256 l 1,25,-1
 320 256 l 1,26,-1
 320 192 l 1,27,-1
 384 192 l 1,28,-1
 384 64 l 1,29,-1
 320 64 l 1,30,-1
 320 0 l 1,31,-1
 64 0 l 1,0,-1
EndSplineSet
EndChar

StartChar: T
Encoding: 84 84 53
Width: 512
GlyphClass: 1
Flags: W
LayerCount: 2
Fore
SplineSet
64 0 m 1,0,-1
 64 64 l 1,1,-1
 128 64 l 1,2,-1
 128 512 l 1,3,-1
 64 512 l 1,4,-1
 64 448 l 1,5,-1
 0 448 l 1,6,-1
 0 576 l 1,7,-1
 384 576 l 1,8,-1
 384 448 l 1,9,-1
 320 448 l 1,10,-1
 320 512 l 1,11,-1
 256 512 l 1,12,-1
 256 64 l 1,13,-1
 320 64 l 1,14,-1
 320 0 l 1,15,-1
 64 0 l 1,0,-1
EndSplineSet
EndChar

StartChar: U
Encoding: 85 85 54
Width: 512
GlyphClass: 1
Flags: W
LayerCount: 2
Fore
SplineSet
64 0 m 1,0,-1
 64 64 l 1,1,-1
 0 64 l 1,2,-1
 0 576 l 1,3,-1
 128 576 l 1,4,-1
 128 64 l 1,5,-1
 256 64 l 1,6,-1
 256 576 l 1,7,-1
 384 576 l 1,8,-1
 384 64 l 1,9,-1
 320 64 l 1,10,-1
 320 0 l 1,11,-1
 64 0 l 1,0,-1
EndSplineSet
EndChar

StartChar: V
Encoding: 86 86 55
Width: 512
GlyphClass: 1
Flags: W
LayerCount: 2
Fore
SplineSet
128 0 m 1,0,-1
 128 64 l 1,1,-1
 64 64 l 1,2,-1
 64 128 l 1,3,-1
 0 128 l 1,4,-1
 0 576 l 1,5,-1
 128 576 l 1,6,-1
 128 128 l 1,7,-1
 256 128 l 1,8,-1
 256 576 l 1,9,-1
 384 576 l 1,10,-1
 384 128 l 1,11,-1
 320 128 l 1,12,-1
 320 64 l 1,13,-1
 256 64 l 1,14,-1
 256 0 l 1,15,-1
 128 0 l 1,0,-1
EndSplineSet
EndChar

StartChar: W
Encoding: 87 87 56
Width: 512
GlyphClass: 1
Flags: W
LayerCount: 2
Fore
SplineSet
192 192 m 1,0,-1
 192 320 l 1,1,-1
 256 320 l 1,2,-1
 256 192 l 1,3,-1
 192 192 l 1,0,-1
64 0 m 1,4,-1
 64 192 l 1,5,-1
 0 192 l 1,6,-1
 0 576 l 1,7,-1
 128 576 l 1,8,-1
 128 192 l 1,9,-1
 192 192 l 1,10,-1
 192 0 l 1,11,-1
 64 0 l 1,4,-1
256 0 m 1,12,-1
 256 192 l 1,13,-1
 320 192 l 1,14,-1
 320 576 l 1,15,-1
 448 576 l 1,16,-1
 448 192 l 1,17,-1
 384 192 l 1,18,-1
 384 0 l 1,19,-1
 256 0 l 1,12,-1
EndSplineSet
EndChar

StartChar: X
Encoding: 88 88 57
Width: 512
GlyphClass: 1
Flags: W
LayerCount: 2
Fore
SplineSet
0 0 m 1,0,-1
 0 192 l 1,1,-1
 64 192 l 1,2,-1
 64 256 l 1,3,-1
 128 256 l 1,4,-1
 128 320 l 1,5,-1
 64 320 l 1,6,-1
 64 384 l 1,7,-1
 0 384 l 1,8,-1
 0 576 l 1,9,-1
 128 576 l 1,10,-1
 128 384 l 1,11,-1
 256 384 l 1,12,-1
 256 576 l 1,13,-1
 384 576 l 1,14,-1
 384 384 l 1,15,-1
 320 384 l 1,16,-1
 320 320 l 1,17,-1
 256 320 l 1,18,-1
 256 256 l 1,19,-1
 320 256 l 1,20,-1
 320 192 l 1,21,-1
 384 192 l 1,22,-1
 384 0 l 1,23,-1
 256 0 l 1,24,-1
 256 192 l 1,25,-1
 128 192 l 1,26,-1
 128 0 l 1,27,-1
 0 0 l 1,0,-1
EndSplineSet
EndChar

StartChar: Y
Encoding: 89 89 58
Width: 512
GlyphClass: 1
Flags: W
LayerCount: 2
Fore
SplineSet
64 0 m 1,0,-1
 64 64 l 1,1,-1
 128 64 l 1,2,-1
 128 256 l 1,3,-1
 64 256 l 1,4,-1
 64 320 l 1,5,-1
 0 320 l 1,6,-1
 0 576 l 1,7,-1
 128 576 l 1,8,-1
 128 320 l 1,9,-1
 256 320 l 1,10,-1
 256 576 l 1,11,-1
 384 576 l 1,12,-1
 384 320 l 1,13,-1
 320 320 l 1,14,-1
 320 256 l 1,15,-1
 256 256 l 1,16,-1
 256 64 l 1,17,-1
 320 64 l 1,18,-1
 320 0 l 1,19,-1
 64 0 l 1,0,-1
EndSplineSet
EndChar

StartChar: Z
Encoding: 90 90 59
Width: 512
GlyphClass: 1
Flags: W
LayerCount: 2
Fore
SplineSet
0 0 m 1,0,-1
 0 128 l 1,1,-1
 64 128 l 1,2,-1
 64 256 l 1,3,-1
 128 256 l 1,4,-1
 128 320 l 1,5,-1
 192 320 l 1,6,-1
 192 448 l 1,7,-1
 256 448 l 1,8,-1
 256 512 l 1,9,-1
 128 512 l 1,10,-1
 128 448 l 1,11,-1
 64 448 l 1,12,-1
 64 384 l 1,13,-1
 0 384 l 1,14,-1
 0 576 l 1,15,-1
 448 576 l 1,16,-1
 448 448 l 1,17,-1
 320 448 l 1,18,-1
 320 320 l 1,19,-1
 256 320 l 1,20,-1
 256 256 l 1,21,-1
 192 256 l 1,22,-1
 192 128 l 1,23,-1
 128 128 l 1,24,-1
 128 64 l 1,25,-1
 320 64 l 1,26,-1
 320 128 l 1,27,-1
 384 128 l 1,28,-1
 384 192 l 1,29,-1
 448 192 l 1,30,-1
 448 0 l 1,31,-1
 0 0 l 1,0,-1
EndSplineSet
EndChar

StartChar: bracketleft
Encoding: 91 91 60
Width: 512
GlyphClass: 1
Flags: W
LayerCount: 2
Fore
SplineSet
128 0 m 1,0,-1
 128 576 l 1,1,-1
 384 576 l 1,2,-1
 384 512 l 1,3,-1
 256 512 l 1,4,-1
 256 64 l 1,5,-1
 384 64 l 1,6,-1
 384 0 l 1,7,-1
 128 0 l 1,0,-1
EndSplineSet
EndChar

StartChar: backslash
Encoding: 92 92 61
Width: 512
GlyphClass: 1
Flags: W
LayerCount: 2
Fore
SplineSet
384 0 m 1,0,-1
 384 64 l 1,1,-1
 320 64 l 1,2,-1
 320 128 l 1,3,-1
 256 128 l 1,4,-1
 256 192 l 1,5,-1
 192 192 l 1,6,-1
 192 256 l 1,7,-1
 128 256 l 1,8,-1
 128 320 l 1,9,-1
 64 320 l 1,10,-1
 64 384 l 1,11,-1
 0 384 l 1,12,-1
 0 512 l 1,13,-1
 64 512 l 1,14,-1
 64 448 l 1,15,-1
 128 448 l 1,16,-1
 128 384 l 1,17,-1
 192 384 l 1,18,-1
 192 320 l 1,19,-1
 256 320 l 1,20,-1
 256 256 l 1,21,-1
 320 256 l 1,22,-1
 320 192 l 1,23,-1
 384 192 l 1,24,-1
 384 128 l 1,25,-1
 448 128 l 1,26,-1
 448 0 l 1,27,-1
 384 0 l 1,0,-1
EndSplineSet
EndChar

StartChar: bracketright
Encoding: 93 93 62
Width: 512
GlyphClass: 1
Flags: W
LayerCount: 2
Fore
SplineSet
128 0 m 1,0,-1
 128 64 l 1,1,-1
 256 64 l 1,2,-1
 256 512 l 1,3,-1
 128 512 l 1,4,-1
 128 576 l 1,5,-1
 384 576 l 1,6,-1
 384 0 l 1,7,-1
 128 0 l 1,0,-1
EndSplineSet
EndChar

StartChar: asciicircum
Encoding: 94 94 63
Width: 512
GlyphClass: 1
Flags: W
LayerCount: 2
Fore
SplineSet
0 384 m 1,0,-1
 0 448 l 1,1,-1
 64 448 l 1,2,-1
 64 512 l 1,3,-1
 128 512 l 1,4,-1
 128 576 l 1,5,-1
 192 576 l 1,6,-1
 192 640 l 1,7,-1
 256 640 l 1,8,-1
 256 576 l 1,9,-1
 320 576 l 1,10,-1
 320 512 l 1,11,-1
 384 512 l 1,12,-1
 384 448 l 1,13,-1
 448 448 l 1,14,-1
 448 384 l 1,15,-1
 320 384 l 1,16,-1
 320 448 l 1,17,-1
 256 448 l 1,18,-1
 256 512 l 1,19,-1
 192 512 l 1,20,-1
 192 448 l 1,21,-1
 128 448 l 1,22,-1
 128 384 l 1,23,-1
 0 384 l 1,0,-1
EndSplineSet
EndChar

StartChar: underscore
Encoding: 95 95 64
Width: 512
GlyphClass: 1
Flags: W
LayerCount: 2
Fore
SplineSet
0 -64 m 1,0,-1
 0 0 l 1,1,-1
 512 0 l 1,2,-1
 512 -64 l 1,3,-1
 0 -64 l 1,0,-1
EndSplineSet
EndChar

StartChar: grave
Encoding: 96 96 65
Width: 512
GlyphClass: 1
Flags: W
LayerCount: 2
Fore
SplineSet
192 448 m 1,0,-1
 192 512 l 1,1,-1
 128 512 l 1,2,-1
 128 640 l 1,3,-1
 256 640 l 1,4,-1
 256 512 l 1,5,-1
 320 512 l 1,6,-1
 320 448 l 1,7,-1
 192 448 l 1,0,-1
EndSplineSet
EndChar

StartChar: a
Encoding: 97 97 66
Width: 512
GlyphClass: 1
Flags: W
LayerCount: 2
Fore
SplineSet
64 0 m 1,0,-1
 64 64 l 1,1,-1
 0 64 l 1,2,-1
 0 192 l 1,3,-1
 64 192 l 1,4,-1
 64 256 l 1,5,-1
 256 256 l 1,6,-1
 256 320 l 1,7,-1
 64 320 l 1,8,-1
 64 384 l 1,9,-1
 320 384 l 1,10,-1
 320 320 l 1,11,-1
 384 320 l 1,12,-1
 384 64 l 1,13,-1
 448 64 l 1,14,-1
 448 0 l 1,15,-1
 320 0 l 1,16,-1
 320 64 l 1,17,-1
 256 64 l 1,18,-1
 256 192 l 1,19,-1
 128 192 l 1,20,-1
 128 64 l 1,21,-1
 256 64 l 1,22,-1
 256 0 l 1,23,-1
 64 0 l 1,0,-1
EndSplineSet
EndChar

StartChar: b
Encoding: 98 98 67
Width: 512
GlyphClass: 1
Flags: W
LayerCount: 2
Fore
SplineSet
0 0 m 1,0,-1
 0 64 l 1,1,-1
 64 64 l 1,2,-1
 64 512 l 1,3,-1
 0 512 l 1,4,-1
 0 576 l 1,5,-1
 192 576 l 1,6,-1
 192 384 l 1,7,-1
 384 384 l 1,8,-1
 384 320 l 1,9,-1
 448 320 l 1,10,-1
 448 64 l 1,11,-1
 384 64 l 1,12,-1
 384 0 l 1,13,-1
 192 0 l 1,14,-1
 192 64 l 1,15,-1
 320 64 l 1,16,-1
 320 320 l 1,17,-1
 192 320 l 1,18,-1
 192 64 l 1,19,-1
 128 64 l 1,20,-1
 128 0 l 1,21,-1
 0 0 l 1,0,-1
EndSplineSet
EndChar

StartChar: c
Encoding: 99 99 68
Width: 512
GlyphClass: 1
Flags: W
LayerCount: 2
Fore
SplineSet
64 0 m 1,0,-1
 64 64 l 1,1,-1
 0 64 l 1,2,-1
 0 320 l 1,3,-1
 64 320 l 1,4,-1
 64 384 l 1,5,-1
 320 384 l 1,6,-1
 320 320 l 1,7,-1
 384 320 l 1,8,-1
 384 256 l 1,9,-1
 256 256 l 1,10,-1
 256 320 l 1,11,-1
 128 320 l 1,12,-1
 128 64 l 1,13,-1
 256 64 l 1,14,-1
 256 128 l 1,15,-1
 384 128 l 1,16,-1
 384 64 l 1,17,-1
 320 64 l 1,18,-1
 320 0 l 1,19,-1
 64 0 l 1,0,-1
EndSplineSet
EndChar

StartChar: d
Encoding: 100 100 69
Width: 512
GlyphClass: 1
Flags: W
LayerCount: 2
Fore
SplineSet
64 0 m 1,0,-1
 64 64 l 1,1,-1
 0 64 l 1,2,-1
 0 320 l 1,3,-1
 64 320 l 1,4,-1
 64 384 l 1,5,-1
 256 384 l 1,6,-1
 256 512 l 1,7,-1
 192 512 l 1,8,-1
 192 576 l 1,9,-1
 384 576 l 1,10,-1
 384 64 l 1,11,-1
 448 64 l 1,12,-1
 448 0 l 1,13,-1
 320 0 l 1,14,-1
 320 64 l 1,15,-1
 256 64 l 1,16,-1
 256 320 l 1,17,-1
 128 320 l 1,18,-1
 128 64 l 1,19,-1
 256 64 l 1,20,-1
 256 0 l 1,21,-1
 64 0 l 1,0,-1
EndSplineSet
EndChar

StartChar: e
Encoding: 101 101 70
Width: 512
GlyphClass: 1
Flags: W
LayerCount: 2
Fore
SplineSet
256 256 m 1,0,-1
 256 320 l 1,1,-1
 128 320 l 1,2,-1
 128 256 l 1,3,-1
 256 256 l 1,0,-1
64 0 m 1,4,-1
 64 64 l 1,5,-1
 0 64 l 1,6,-1
 0 320 l 1,7,-1
 64 320 l 1,8,-1
 64 384 l 1,9,-1
 320 384 l 1,10,-1
 320 320 l 1,11,-1
 384 320 l 1,12,-1
 384 192 l 1,13,-1
 128 192 l 1,14,-1
 128 64 l 1,15,-1
 256 64 l 1,16,-1
 256 128 l 1,17,-1
 384 128 l 1,18,-1
 384 64 l 1,19,-1
 320 64 l 1,20,-1
 320 0 l 1,21,-1
 64 0 l 1,4,-1
EndSplineSet
EndChar

StartChar: f
Encoding: 102 102 71
Width: 512
GlyphClass: 1
Flags: W
LayerCount: 2
Fore
SplineSet
0 0 m 1,0,-1
 0 64 l 1,1,-1
 64 64 l 1,2,-1
 64 256 l 1,3,-1
 0 256 l 1,4,-1
 0 320 l 1,5,-1
 64 320 l 1,6,-1
 64 512 l 1,7,-1
 128 512 l 1,8,-1
 128 576 l 1,9,-1
 320 576 l 1,10,-1
 320 512 l 1,11,-1
 384 512 l 1,12,-1
 384 448 l 1,13,-1
 256 448 l 1,14,-1
 256 512 l 1,15,-1
 192 512 l 1,16,-1
 192 320 l 1,17,-1
 320 320 l 1,18,-1
 320 256 l 1,19,-1
 192 256 l 1,20,-1
 192 64 l 1,21,-1
 256 64 l 1,22,-1
 256 0 l 1,23,-1
 0 0 l 1,0,-1
EndSplineSet
EndChar

StartChar: g
Encoding: 103 103 72
Width: 512
GlyphClass: 1
Flags: W
LayerCount: 2
Fore
SplineSet
64 -128 m 1,0,-1
 64 -64 l 1,1,-1
 0 -64 l 1,2,-1
 0 0 l 1,3,-1
 128 0 l 1,4,-1
 128 -64 l 1,5,-1
 256 -64 l 1,6,-1
 256 -128 l 1,7,-1
 64 -128 l 1,0,-1
256 -64 m 1,8,-1
 256 64 l 1,9,-1
 64 64 l 1,10,-1
 64 128 l 1,11,-1
 0 128 l 1,12,-1
 0 320 l 1,13,-1
 64 320 l 1,14,-1
 64 384 l 1,15,-1
 256 384 l 1,16,-1
 256 320 l 1,17,-1
 128 320 l 1,18,-1
 128 128 l 1,19,-1
 256 128 l 1,20,-1
 256 320 l 1,21,-1
 320 320 l 1,22,-1
 320 384 l 1,23,-1
 448 384 l 1,24,-1
 448 320 l 1,25,-1
 384 320 l 1,26,-1
 384 -64 l 1,27,-1
 256 -64 l 1,8,-1
EndSplineSet
EndChar

StartChar: h
Encoding: 104 104 73
Width: 512
GlyphClass: 1
Flags: W
LayerCount: 2
Fore
SplineSet
320 0 m 1,0,-1
 320 320 l 1,1,-1
 256 320 l 1,2,-1
 256 384 l 1,3,-1
 384 384 l 1,4,-1
 384 320 l 1,5,-1
 448 320 l 1,6,-1
 448 0 l 1,7,-1
 320 0 l 1,0,-1
0 0 m 1,8,-1
 0 64 l 1,9,-1
 64 64 l 1,10,-1
 64 512 l 1,11,-1
 0 512 l 1,12,-1
 0 576 l 1,13,-1
 192 576 l 1,14,-1
 192 320 l 1,15,-1
 256 320 l 1,16,-1
 256 256 l 1,17,-1
 192 256 l 1,18,-1
 192 0 l 1,19,-1
 0 0 l 1,8,-1
EndSplineSet
EndChar

StartChar: i
Encoding: 105 105 74
Width: 512
GlyphClass: 1
Flags: W
LayerCount: 2
Fore
SplineSet
0 0 m 1,0,-1
 0 64 l 1,1,-1
 128 64 l 1,2,-1
 128 320 l 1,3,-1
 0 320 l 1,4,-1
 0 384 l 1,5,-1
 256 384 l 1,6,-1
 256 64 l 1,7,-1
 384 64 l 1,8,-1
 384 0 l 1,9,-1
 0 0 l 1,0,-1
128 448 m 1,10,-1
 128 576 l 1,11,-1
 256 576 l 1,12,-1
 256 448 l 1,13,-1
 128 448 l 1,10,-1
EndSplineSet
EndChar

StartChar: j
Encoding: 106 106 75
Width: 512
GlyphClass: 1
Flags: W
LayerCount: 2
Fore
SplineSet
64 -128 m 1,0,-1
 64 -64 l 1,1,-1
 0 -64 l 1,2,-1
 0 64 l 1,3,-1
 128 64 l 1,4,-1
 128 -64 l 1,5,-1
 256 -64 l 1,6,-1
 256 320 l 1,7,-1
 128 320 l 1,8,-1
 128 384 l 1,9,-1
 384 384 l 1,10,-1
 384 -64 l 1,11,-1
 320 -64 l 1,12,-1
 320 -128 l 1,13,-1
 64 -128 l 1,0,-1
256 448 m 1,14,-1
 256 576 l 1,15,-1
 384 576 l 1,16,-1
 384 448 l 1,17,-1
 256 448 l 1,14,-1
EndSplineSet
EndChar

StartChar: k
Encoding: 107 107 76
Width: 512
GlyphClass: 1
Flags: W
LayerCount: 2
Fore
SplineSet
0 0 m 1,0,-1
 0 64 l 1,1,-1
 64 64 l 1,2,-1
 64 512 l 1,3,-1
 0 512 l 1,4,-1
 0 576 l 1,5,-1
 192 576 l 1,6,-1
 192 256 l 1,7,-1
 256 256 l 1,8,-1
 256 320 l 1,9,-1
 320 320 l 1,10,-1
 320 384 l 1,11,-1
 448 384 l 1,12,-1
 448 320 l 1,13,-1
 384 320 l 1,14,-1
 384 256 l 1,15,-1
 320 256 l 1,16,-1
 320 192 l 1,17,-1
 384 192 l 1,18,-1
 384 128 l 1,19,-1
 448 128 l 1,20,-1
 448 0 l 1,21,-1
 320 0 l 1,22,-1
 320 128 l 1,23,-1
 256 128 l 1,24,-1
 256 192 l 1,25,-1
 192 192 l 1,26,-1
 192 0 l 1,27,-1
 0 0 l 1,0,-1
EndSplineSet
EndChar

StartChar: l
Encoding: 108 108 77
Width: 512
GlyphClass: 1
Flags: W
LayerCount: 2
Fore
SplineSet
0 0 m 1,0,-1
 0 64 l 1,1,-1
 128 64 l 1,2,-1
 128 512 l 1,3,-1
 0 512 l 1,4,-1
 0 576 l 1,5,-1
 256 576 l 1,6,-1
 256 64 l 1,7,-1
 384 64 l 1,8,-1
 384 0 l 1,9,-1
 0 0 l 1,0,-1
EndSplineSet
EndChar

StartChar: m
Encoding: 109 109 78
Width: 512
GlyphClass: 1
Flags: W
LayerCount: 2
Fore
SplineSet
0 0 m 1,0,-1
 0 384 l 1,1,-1
 384 384 l 1,2,-1
 384 320 l 1,3,-1
 448 320 l 1,4,-1
 448 0 l 1,5,-1
 320 0 l 1,6,-1
 320 320 l 1,7,-1
 256 320 l 1,8,-1
 256 64 l 1,9,-1
 192 64 l 1,10,-1
 192 320 l 1,11,-1
 128 320 l 1,12,-1
 128 0 l 1,13,-1
 0 0 l 1,0,-1
EndSplineSet
EndChar

StartChar: n
Encoding: 110 110 79
Width: 512
GlyphClass: 1
Flags: W
LayerCount: 2
Fore
SplineSet
0 0 m 1,0,-1
 0 384 l 1,1,-1
 320 384 l 1,2,-1
 320 320 l 1,3,-1
 384 320 l 1,4,-1
 384 0 l 1,5,-1
 256 0 l 1,6,-1
 256 320 l 1,7,-1
 128 320 l 1,8,-1
 128 0 l 1,9,-1
 0 0 l 1,0,-1
EndSplineSet
EndChar

StartChar: o
Encoding: 111 111 80
Width: 512
GlyphClass: 1
Flags: W
LayerCount: 2
Fore
SplineSet
256 64 m 1,0,-1
 256 320 l 1,1,-1
 128 320 l 1,2,-1
 128 64 l 1,3,-1
 256 64 l 1,0,-1
64 0 m 1,4,-1
 64 64 l 1,5,-1
 0 64 l 1,6,-1
 0 320 l 1,7,-1
 64 320 l 1,8,-1
 64 384 l 1,9,-1
 320 384 l 1,10,-1
 320 320 l 1,11,-1
 384 320 l 1,12,-1
 384 64 l 1,13,-1
 320 64 l 1,14,-1
 320 0 l 1,15,-1
 64 0 l 1,4,-1
EndSplineSet
EndChar

StartChar: p
Encoding: 112 112 81
Width: 512
GlyphClass: 1
Flags: W
LayerCount: 2
Fore
SplineSet
0 -128 m 1,0,-1
 0 -64 l 1,1,-1
 64 -64 l 1,2,-1
 64 320 l 1,3,-1
 0 320 l 1,4,-1
 0 384 l 1,5,-1
 128 384 l 1,6,-1
 128 320 l 1,7,-1
 192 320 l 1,8,-1
 192 64 l 1,9,-1
 320 64 l 1,10,-1
 320 320 l 1,11,-1
 192 320 l 1,12,-1
 192 384 l 1,13,-1
 384 384 l 1,14,-1
 384 320 l 1,15,-1
 448 320 l 1,16,-1
 448 64 l 1,17,-1
 384 64 l 1,18,-1
 384 0 l 1,19,-1
 192 0 l 1,20,-1
 192 -64 l 1,21,-1
 256 -64 l 1,22,-1
 256 -128 l 1,23,-1
 0 -128 l 1,0,-1
EndSplineSet
EndChar

StartChar: q
Encoding: 113 113 82
Width: 512
GlyphClass: 1
Flags: W
LayerCount: 2
Fore
SplineSet
192 -128 m 1,0,-1
 192 -64 l 1,1,-1
 256 -64 l 1,2,-1
 256 0 l 1,3,-1
 64 0 l 1,4,-1
 64 64 l 1,5,-1
 0 64 l 1,6,-1
 0 320 l 1,7,-1
 64 320 l 1,8,-1
 64 384 l 1,9,-1
 256 384 l 1,10,-1
 256 320 l 1,11,-1
 128 320 l 1,12,-1
 128 64 l 1,13,-1
 256 64 l 1,14,-1
 256 320 l 1,15,-1
 320 320 l 1,16,-1
 320 384 l 1,17,-1
 448 384 l 1,18,-1
 448 320 l 1,19,-1
 384 320 l 1,20,-1
 384 -64 l 1,21,-1
 448 -64 l 1,22,-1
 448 -128 l 1,23,-1
 192 -128 l 1,0,-1
EndSplineSet
EndChar

StartChar: r
Encoding: 114 114 83
Width: 512
GlyphClass: 1
Flags: W
LayerCount: 2
Fore
SplineSet
0 0 m 1,0,-1
 0 64 l 1,1,-1
 64 64 l 1,2,-1
 64 320 l 1,3,-1
 0 320 l 1,4,-1
 0 384 l 1,5,-1
 192 384 l 1,6,-1
 192 256 l 1,7,-1
 256 256 l 1,8,-1
 256 192 l 1,9,-1
 192 192 l 1,10,-1
 192 64 l 1,11,-1
 256 64 l 1,12,-1
 256 0 l 1,13,-1
 0 0 l 1,0,-1
320 192 m 1,14,-1
 320 256 l 1,15,-1
 256 256 l 1,16,-1
 256 384 l 1,17,-1
 384 384 l 1,18,-1
 384 320 l 1,19,-1
 448 320 l 1,20,-1
 448 192 l 1,21,-1
 320 192 l 1,14,-1
EndSplineSet
EndChar

StartChar: s
Encoding: 115 115 84
Width: 512
GlyphClass: 1
Flags: W
LayerCount: 2
Fore
SplineSet
64 0 m 1,0,-1
 64 64 l 1,1,-1
 0 64 l 1,2,-1
 0 128 l 1,3,-1
 128 128 l 1,4,-1
 128 64 l 1,5,-1
 256 64 l 1,6,-1
 256 128 l 1,7,-1
 192 128 l 1,8,-1
 192 192 l 1,9,-1
 320 192 l 1,10,-1
 320 128 l 1,11,-1
 384 128 l 1,12,-1
 384 64 l 1,13,-1
 320 64 l 1,14,-1
 320 0 l 1,15,-1
 64 0 l 1,0,-1
64 192 m 1,16,-1
 64 256 l 1,17,-1
 0 256 l 1,18,-1
 0 320 l 1,19,-1
 64 320 l 1,20,-1
 64 384 l 1,21,-1
 320 384 l 1,22,-1
 320 320 l 1,23,-1
 384 320 l 1,24,-1
 384 256 l 1,25,-1
 256 256 l 1,26,-1
 256 320 l 1,27,-1
 128 320 l 1,28,-1
 128 256 l 1,29,-1
 192 256 l 1,30,-1
 192 192 l 1,31,-1
 64 192 l 1,16,-1
EndSplineSet
EndChar

StartChar: t
Encoding: 116 116 85
Width: 512
GlyphClass: 1
Flags: W
LayerCount: 2
Fore
SplineSet
128 0 m 1,0,-1
 128 64 l 1,1,-1
 64 64 l 1,2,-1
 64 320 l 1,3,-1
 0 320 l 1,4,-1
 0 384 l 1,5,-1
 64 384 l 1,6,-1
 64 448 l 1,7,-1
 128 448 l 1,8,-1
 128 512 l 1,9,-1
 192 512 l 1,10,-1
 192 384 l 1,11,-1
 384 384 l 1,12,-1
 384 320 l 1,13,-1
 192 320 l 1,14,-1
 192 64 l 1,15,-1
 256 64 l 1,16,-1
 256 128 l 1,17,-1
 384 128 l 1,18,-1
 384 64 l 1,19,-1
 320 64 l 1,20,-1
 320 0 l 1,21,-1
 128 0 l 1,0,-1
EndSplineSet
EndChar

StartChar: u
Encoding: 117 117 86
Width: 512
GlyphClass: 1
Flags: W
LayerCount: 2
Fore
SplineSet
64 0 m 1,0,-1
 64 64 l 1,1,-1
 0 64 l 1,2,-1
 0 384 l 1,3,-1
 128 384 l 1,4,-1
 128 64 l 1,5,-1
 256 64 l 1,6,-1
 256 0 l 1,7,-1
 64 0 l 1,0,-1
320 0 m 1,8,-1
 320 64 l 1,9,-1
 256 64 l 1,10,-1
 256 384 l 1,11,-1
 384 384 l 1,12,-1
 384 64 l 1,13,-1
 448 64 l 1,14,-1
 448 0 l 1,15,-1
 320 0 l 1,8,-1
EndSplineSet
EndChar

StartChar: v
Encoding: 118 118 87
Width: 512
GlyphClass: 1
Flags: W
LayerCount: 2
Fore
SplineSet
128 0 m 1,0,-1
 128 64 l 1,1,-1
 64 64 l 1,2,-1
 64 128 l 1,3,-1
 0 128 l 1,4,-1
 0 384 l 1,5,-1
 128 384 l 1,6,-1
 128 128 l 1,7,-1
 256 128 l 1,8,-1
 256 384 l 1,9,-1
 384 384 l 1,10,-1
 384 128 l 1,11,-1
 320 128 l 1,12,-1
 320 64 l 1,13,-1
 256 64 l 1,14,-1
 256 0 l 1,15,-1
 128 0 l 1,0,-1
EndSplineSet
EndChar

StartChar: w
Encoding: 119 119 88
Width: 512
GlyphClass: 1
Flags: W
LayerCount: 2
Fore
SplineSet
192 128 m 1,0,-1
 192 256 l 1,1,-1
 256 256 l 1,2,-1
 256 128 l 1,3,-1
 192 128 l 1,0,-1
64 0 m 1,4,-1
 64 128 l 1,5,-1
 0 128 l 1,6,-1
 0 384 l 1,7,-1
 128 384 l 1,8,-1
 128 128 l 1,9,-1
 192 128 l 1,10,-1
 192 0 l 1,11,-1
 64 0 l 1,4,-1
256 0 m 1,12,-1
 256 128 l 1,13,-1
 320 128 l 1,14,-1
 320 384 l 1,15,-1
 448 384 l 1,16,-1
 448 128 l 1,17,-1
 384 128 l 1,18,-1
 384 0 l 1,19,-1
 256 0 l 1,12,-1
EndSplineSet
EndChar

StartChar: x
Encoding: 120 120 89
Width: 512
GlyphClass: 1
Flags: W
LayerCount: 2
Fore
SplineSet
0 0 m 1,0,-1
 0 64 l 1,1,-1
 64 64 l 1,2,-1
 64 128 l 1,3,-1
 128 128 l 1,4,-1
 128 256 l 1,5,-1
 64 256 l 1,6,-1
 64 320 l 1,7,-1
 0 320 l 1,8,-1
 0 384 l 1,9,-1
 128 384 l 1,10,-1
 128 320 l 1,11,-1
 192 320 l 1,12,-1
 192 256 l 1,13,-1
 256 256 l 1,14,-1
 256 320 l 1,15,-1
 320 320 l 1,16,-1
 320 384 l 1,17,-1
 448 384 l 1,18,-1
 448 320 l 1,19,-1
 384 320 l 1,20,-1
 384 256 l 1,21,-1
 320 256 l 1,22,-1
 320 128 l 1,23,-1
 384 128 l 1,24,-1
 384 64 l 1,25,-1
 448 64 l 1,26,-1
 448 0 l 1,27,-1
 320 0 l 1,28,-1
 320 64 l 1,29,-1
 256 64 l 1,30,-1
 256 128 l 1,31,-1
 192 128 l 1,32,-1
 192 64 l 1,33,-1
 128 64 l 1,34,-1
 128 0 l 1,35,-1
 0 0 l 1,0,-1
EndSplineSet
EndChar

StartChar: y
Encoding: 121 121 90
Width: 512
GlyphClass: 1
Flags: W
LayerCount: 2
Fore
SplineSet
0 -128 m 1,0,-1
 0 -64 l 1,1,-1
 192 -64 l 1,2,-1
 192 0 l 1,3,-1
 256 0 l 1,4,-1
 256 64 l 1,5,-1
 128 64 l 1,6,-1
 128 128 l 1,7,-1
 64 128 l 1,8,-1
 64 384 l 1,9,-1
 192 384 l 1,10,-1
 192 128 l 1,11,-1
 320 128 l 1,12,-1
 320 384 l 1,13,-1
 448 384 l 1,14,-1
 448 128 l 1,15,-1
 384 128 l 1,16,-1
 384 0 l 1,17,-1
 320 0 l 1,18,-1
 320 -64 l 1,19,-1
 256 -64 l 1,20,-1
 256 -128 l 1,21,-1
 0 -128 l 1,0,-1
EndSplineSet
EndChar

StartChar: z
Encoding: 122 122 91
Width: 512
GlyphClass: 1
Flags: W
LayerCount: 2
Fore
SplineSet
0 0 m 1,0,-1
 0 128 l 1,1,-1
 64 128 l 1,2,-1
 64 192 l 1,3,-1
 192 192 l 1,4,-1
 192 128 l 1,5,-1
 128 128 l 1,6,-1
 128 64 l 1,7,-1
 320 64 l 1,8,-1
 320 128 l 1,9,-1
 384 128 l 1,10,-1
 384 0 l 1,11,-1
 0 0 l 1,0,-1
192 192 m 1,12,-1
 192 256 l 1,13,-1
 256 256 l 1,14,-1
 256 320 l 1,15,-1
 64 320 l 1,16,-1
 64 256 l 1,17,-1
 0 256 l 1,18,-1
 0 384 l 1,19,-1
 384 384 l 1,20,-1
 384 256 l 1,21,-1
 320 256 l 1,22,-1
 320 192 l 1,23,-1
 192 192 l 1,12,-1
EndSplineSet
EndChar

StartChar: braceleft
Encoding: 123 123 92
Width: 512
GlyphClass: 1
Flags: W
LayerCount: 2
Fore
SplineSet
192 0 m 1,0,-1
 192 64 l 1,1,-1
 128 64 l 1,2,-1
 128 192 l 1,3,-1
 64 192 l 1,4,-1
 64 256 l 1,5,-1
 0 256 l 1,6,-1
 0 320 l 1,7,-1
 64 320 l 1,8,-1
 64 384 l 1,9,-1
 128 384 l 1,10,-1
 128 512 l 1,11,-1
 192 512 l 1,12,-1
 192 576 l 1,13,-1
 384 576 l 1,14,-1
 384 512 l 1,15,-1
 256 512 l 1,16,-1
 256 384 l 1,17,-1
 192 384 l 1,18,-1
 192 320 l 1,19,-1
 128 320 l 1,20,-1
 128 256 l 1,21,-1
 192 256 l 1,22,-1
 192 192 l 1,23,-1
 256 192 l 1,24,-1
 256 64 l 1,25,-1
 384 64 l 1,26,-1
 384 0 l 1,27,-1
 192 0 l 1,0,-1
EndSplineSet
EndChar

StartChar: bar
Encoding: 124 124 93
Width: 512
GlyphClass: 1
Flags: W
LayerCount: 2
Fore
SplineSet
192 0 m 1,0,-1
 192 256 l 1,1,-1
 320 256 l 1,2,-1
 320 0 l 1,3,-1
 192 0 l 1,0,-1
192 320 m 1,4,-1
 192 576 l 1,5,-1
 320 576 l 1,6,-1
 320 320 l 1,7,-1
 192 320 l 1,4,-1
EndSplineSet
EndChar

StartChar: braceright
Encoding: 125 125 94
Width: 512
GlyphClass: 1
Flags: W
LayerCount: 2
Fore
SplineSet
0 0 m 1,0,-1
 0 64 l 1,1,-1
 128 64 l 1,2,-1
 128 192 l 1,3,-1
 192 192 l 1,4,-1
 192 256 l 1,5,-1
 256 256 l 1,6,-1
 256 320 l 1,7,-1
 192 320 l 1,8,-1
 192 384 l 1,9,-1
 128 384 l 1,10,-1
 128 512 l 1,11,-1
 0 512 l 1,12,-1
 0 576 l 1,13,-1
 192 576 l 1,14,-1
 192 512 l 1,15,-1
 256 512 l 1,16,-1
 256 384 l 1,17,-1
 320 384 l 1,18,-1
 320 320 l 1,19,-1
 384 320 l 1,20,-1
 384 256 l 1,21,-1
 320 256 l 1,22,-1
 320 192 l 1,23,-1
 256 192 l 1,24,-1
 256 64 l 1,25,-1
 192 64 l 1,26,-1
 192 0 l 1,27,-1
 0 0 l 1,0,-1
EndSplineSet
EndChar

StartChar: asciitilde
Encoding: 126 126 95
Width: 512
GlyphClass: 1
Flags: W
LayerCount: 2
Fore
SplineSet
0 384 m 1,0,-1
 0 512 l 1,1,-1
 64 512 l 1,2,-1
 64 576 l 1,3,-1
 256 576 l 1,4,-1
 256 512 l 1,5,-1
 320 512 l 1,6,-1
 320 448 l 1,7,-1
 384 448 l 1,8,-1
 384 576 l 1,9,-1
 512 576 l 1,10,-1
 512 512 l 1,11,-1
 448 512 l 1,12,-1
 448 384 l 1,13,-1
 256 384 l 1,14,-1
 256 448 l 1,15,-1
 192 448 l 1,16,-1
 192 512 l 1,17,-1
 128 512 l 1,18,-1
 128 384 l 1,19,-1
 0 384 l 1,0,-1
EndSplineSet
EndChar

StartChar: emdash
Encoding: 8212 8212 96
Width: 512
GlyphClass: 1
Flags: W
LayerCount: 2
Fore
SplineSet
0 256 m 1,0,-1
 0 320 l 1,1,-1
 448 320 l 1,2,-1
 448 256 l 1,3,-1
 0 256 l 1,0,-1
EndSplineSet
EndChar

StartChar: quoteleft
Encoding: 8216 8216 97
Width: 512
GlyphClass: 1
Flags: W
LayerCount: 2
Fore
SplineSet
64 320 m 1,0,-1
 64 384 l 1,1,-1
 128 384 l 1,2,-1
 128 576 l 1,3,-1
 256 576 l 1,4,-1
 256 384 l 1,5,-1
 192 384 l 1,6,-1
 192 320 l 1,7,-1
 64 320 l 1,0,-1
EndSplineSet
EndChar

StartChar: quoteright
Encoding: 8217 8217 98
Width: 512
GlyphClass: 1
Flags: W
LayerCount: 2
Fore
SplineSet
64 320 m 1,0,-1
 64 384 l 1,1,-1
 128 384 l 1,2,-1
 128 576 l 1,3,-1
 256 576 l 1,4,-1
 256 384 l 1,5,-1
 192 384 l 1,6,-1
 192 320 l 1,7,-1
 64 320 l 1,0,-1
EndSplineSet
EndChar

StartChar: quotesinglbase
Encoding: 8218 8218 99
Width: 512
GlyphClass: 1
Flags: W
LayerCount: 2
Fore
SplineSet
128 0 m 1,0,-1
 128 128 l 1,1,-1
 320 128 l 1,2,-1
 320 0 l 1,3,-1
 128 0 l 1,0,-1
EndSplineSet
EndChar

StartChar: quotereversed
Encoding: 8219 8219 100
Width: 512
GlyphClass: 1
Flags: W
LayerCount: 2
Fore
SplineSet
64 320 m 1,0,-1
 64 384 l 1,1,-1
 128 384 l 1,2,-1
 128 576 l 1,3,-1
 256 576 l 1,4,-1
 256 384 l 1,5,-1
 192 384 l 1,6,-1
 192 320 l 1,7,-1
 64 320 l 1,0,-1
EndSplineSet
EndChar

StartChar: quotedblleft
Encoding: 8220 8220 101
Width: 512
GlyphClass: 1
Flags: W
LayerCount: 2
Fore
SplineSet
128 320 m 1,0,-1
 128 384 l 1,1,-1
 64 384 l 1,2,-1
 64 576 l 1,3,-1
 192 576 l 1,4,-1
 192 320 l 1,5,-1
 128 320 l 1,0,-1
320 320 m 1,6,-1
 320 576 l 1,7,-1
 448 576 l 1,8,-1
 448 384 l 1,9,-1
 384 384 l 1,10,-1
 384 320 l 1,11,-1
 320 320 l 1,6,-1
EndSplineSet
EndChar

StartChar: quotedblright
Encoding: 8221 8221 102
Width: 512
GlyphClass: 1
Flags: W
LayerCount: 2
Fore
SplineSet
128 320 m 1,0,-1
 128 384 l 1,1,-1
 64 384 l 1,2,-1
 64 576 l 1,3,-1
 192 576 l 1,4,-1
 192 320 l 1,5,-1
 128 320 l 1,0,-1
320 320 m 1,6,-1
 320 576 l 1,7,-1
 448 576 l 1,8,-1
 448 384 l 1,9,-1
 384 384 l 1,10,-1
 384 320 l 1,11,-1
 320 320 l 1,6,-1
EndSplineSet
EndChar

StartChar: quotedblbase
Encoding: 8222 8222 103
Width: 512
GlyphClass: 1
Flags: W
LayerCount: 2
Fore
SplineSet
128 0 m 1,0,-1
 128 64 l 1,1,-1
 64 64 l 1,2,-1
 64 256 l 1,3,-1
 192 256 l 1,4,-1
 192 0 l 1,5,-1
 128 0 l 1,0,-1
320 0 m 1,6,-1
 320 256 l 1,7,-1
 448 256 l 1,8,-1
 448 64 l 1,9,-1
 384 64 l 1,10,-1
 384 0 l 1,11,-1
 320 0 l 1,6,-1
EndSplineSet
EndChar

StartChar: dagger
Encoding: 8224 8224 104
Width: 512
GlyphClass: 1
Flags: W
LayerCount: 2
Fore
SplineSet
192 0 m 1,0,-1
 192 256 l 1,1,-1
 0 256 l 1,2,-1
 0 320 l 1,3,-1
 192 320 l 1,4,-1
 192 576 l 1,5,-1
 320 576 l 1,6,-1
 320 320 l 1,7,-1
 512 320 l 1,8,-1
 512 256 l 1,9,-1
 320 256 l 1,10,-1
 320 0 l 1,11,-1
 192 0 l 1,0,-1
EndSplineSet
EndChar

StartChar: ellipsis
Encoding: 8230 8230 105
Width: 512
GlyphClass: 1
Flags: W
LayerCount: 2
Fore
SplineSet
0 0 m 1,0,-1
 0 128 l 1,1,-1
 128 128 l 1,2,-1
 128 0 l 1,3,-1
 0 0 l 1,0,-1
192 0 m 1,4,-1
 192 128 l 1,5,-1
 320 128 l 1,6,-1
 320 0 l 1,7,-1
 192 0 l 1,4,-1
384 0 m 1,8,-1
 384 128 l 1,9,-1
 512 128 l 1,10,-1
 512 0 l 1,11,-1
 384 0 l 1,8,-1
EndSplineSet
EndChar

StartChar: guilsinglleft
Encoding: 8249 8249 106
Width: 512
GlyphClass: 1
Flags: W
LayerCount: 2
Fore
SplineSet
256 0 m 1,0,-1
 256 64 l 1,1,-1
 192 64 l 1,2,-1
 192 128 l 1,3,-1
 128 128 l 1,4,-1
 128 192 l 1,5,-1
 64 192 l 1,6,-1
 64 256 l 1,7,-1
 0 256 l 1,8,-1
 0 320 l 1,9,-1
 64 320 l 1,10,-1
 64 384 l 1,11,-1
 128 384 l 1,12,-1
 128 448 l 1,13,-1
 192 448 l 1,14,-1
 192 512 l 1,15,-1
 256 512 l 1,16,-1
 256 576 l 1,17,-1
 384 576 l 1,18,-1
 384 512 l 1,19,-1
 320 512 l 1,20,-1
 320 448 l 1,21,-1
 256 448 l 1,22,-1
 256 384 l 1,23,-1
 192 384 l 1,24,-1
 192 320 l 1,25,-1
 128 320 l 1,26,-1
 128 256 l 1,27,-1
 192 256 l 1,28,-1
 192 192 l 1,29,-1
 256 192 l 1,30,-1
 256 128 l 1,31,-1
 320 128 l 1,32,-1
 320 64 l 1,33,-1
 384 64 l 1,34,-1
 384 0 l 1,35,-1
 256 0 l 1,0,-1
EndSplineSet
EndChar

StartChar: guilsinglright
Encoding: 8250 8250 107
Width: 512
GlyphClass: 1
Flags: W
LayerCount: 2
Fore
SplineSet
0 0 m 1,0,-1
 0 64 l 1,1,-1
 64 64 l 1,2,-1
 64 128 l 1,3,-1
 128 128 l 1,4,-1
 128 192 l 1,5,-1
 192 192 l 1,6,-1
 192 256 l 1,7,-1
 256 256 l 1,8,-1
 256 320 l 1,9,-1
 192 320 l 1,10,-1
 192 384 l 1,11,-1
 128 384 l 1,12,-1
 128 448 l 1,13,-1
 64 448 l 1,14,-1
 64 512 l 1,15,-1
 0 512 l 1,16,-1
 0 576 l 1,17,-1
 128 576 l 1,18,-1
 128 512 l 1,19,-1
 192 512 l 1,20,-1
 192 448 l 1,21,-1
 256 448 l 1,22,-1
 256 384 l 1,23,-1
 320 384 l 1,24,-1
 320 320 l 1,25,-1
 384 320 l 1,26,-1
 384 256 l 1,27,-1
 320 256 l 1,28,-1
 320 192 l 1,29,-1
 256 192 l 1,30,-1
 256 128 l 1,31,-1
 192 128 l 1,32,-1
 192 64 l 1,33,-1
 128 64 l 1,34,-1
 128 0 l 1,35,-1
 0 0 l 1,0,-1
EndSplineSet
EndChar

StartChar: Euro
Encoding: 8364 8364 108
Width: 512
GlyphClass: 1
Flags: W
LayerCount: 2
Fore
SplineSet
128 0 m 1,0,-1
 128 64 l 1,1,-1
 64 64 l 1,2,-1
 64 128 l 1,3,-1
 0 128 l 1,4,-1
 0 448 l 1,5,-1
 64 448 l 1,6,-1
 64 512 l 1,7,-1
 128 512 l 1,8,-1
 128 576 l 1,9,-1
 384 576 l 1,10,-1
 384 512 l 1,11,-1
 448 512 l 1,12,-1
 448 384 l 1,13,-1
 320 384 l 1,14,-1
 320 512 l 1,15,-1
 192 512 l 1,16,-1
 192 448 l 1,17,-1
 128 448 l 1,18,-1
 128 384 l 1,19,-1
 256 384 l 1,20,-1
 256 320 l 1,21,-1
 128 320 l 1,22,-1
 128 256 l 1,23,-1
 256 256 l 1,24,-1
 256 192 l 1,25,-1
 128 192 l 1,26,-1
 128 128 l 1,27,-1
 192 128 l 1,28,-1
 192 64 l 1,29,-1
 320 64 l 1,30,-1
 320 192 l 1,31,-1
 448 192 l 1,32,-1
 448 64 l 1,33,-1
 384 64 l 1,34,-1
 384 0 l 1,35,-1
 128 0 l 1,0,-1
EndSplineSet
EndChar

StartChar: trademark
Encoding: 8482 8482 109
Width: 512
GlyphClass: 1
Flags: W
LayerCount: 2
Fore
SplineSet
64 256 m 1,0,-1
 64 512 l 1,1,-1
 0 512 l 1,2,-1
 0 576 l 1,3,-1
 192 576 l 1,4,-1
 192 512 l 1,5,-1
 128 512 l 1,6,-1
 128 256 l 1,7,-1
 64 256 l 1,0,-1
256 256 m 1,8,-1
 256 576 l 1,9,-1
 512 576 l 1,10,-1
 512 256 l 1,11,-1
 448 256 l 1,12,-1
 448 320 l 1,13,-1
 320 320 l 1,14,-1
 320 256 l 1,15,-1
 256 256 l 1,8,-1
EndSplineSet
EndChar

StartChar: uniFB01
Encoding: 64257 64257 110
Width: 512
GlyphClass: 1
Flags: W
LayerCount: 2
Fore
SplineSet
320 0 m 1,0,-1
 320 448 l 1,1,-1
 448 448 l 1,2,-1
 448 0 l 1,3,-1
 320 0 l 1,0,-1
64 0 m 1,4,-1
 64 384 l 1,5,-1
 0 384 l 1,6,-1
 0 448 l 1,7,-1
 64 448 l 1,8,-1
 64 576 l 1,9,-1
 128 576 l 1,10,-1
 128 640 l 1,11,-1
 256 640 l 1,12,-1
 256 576 l 1,13,-1
 192 576 l 1,14,-1
 192 448 l 1,15,-1
 256 448 l 1,16,-1
 256 384 l 1,17,-1
 192 384 l 1,18,-1
 192 0 l 1,19,-1
 64 0 l 1,4,-1
320 512 m 1,20,-1
 320 640 l 1,21,-1
 448 640 l 1,22,-1
 448 512 l 1,23,-1
 320 512 l 1,20,-1
EndSplineSet
EndChar

StartChar: uniFB02
Encoding: 64258 64258 111
Width: 512
GlyphClass: 1
Flags: W
LayerCount: 2
Fore
SplineSet
64 0 m 1,0,-1
 64 384 l 1,1,-1
 0 384 l 1,2,-1
 0 448 l 1,3,-1
 64 448 l 1,4,-1
 64 576 l 1,5,-1
 128 576 l 1,6,-1
 128 640 l 1,7,-1
 256 640 l 1,8,-1
 256 576 l 1,9,-1
 192 576 l 1,10,-1
 192 448 l 1,11,-1
 256 448 l 1,12,-1
 256 384 l 1,13,-1
 192 384 l 1,14,-1
 192 0 l 1,15,-1
 64 0 l 1,0,-1
320 0 m 1,16,-1
 320 640 l 1,17,-1
 448 640 l 1,18,-1
 448 0 l 1,19,-1
 320 0 l 1,16,-1
EndSplineSet
EndChar
